STARTFONT 2.1
COMMENT ======================================================================
COMMENT Font Status: Complete.
COMMENT The font name is subject to change later.
COMMENT ***********
COMMENT Ethiomx12-uni.bdf is a hand drawn font with origins back to gez.asc
COMMENT ***********
COMMENT This Is The Unicode Ordered & Addressed Ethiopic Font Based On UTC-95-055A.
COMMENT Extension candidates are added in 4 rows at the end in a compressed 16
COMMENT column format. SERA character names are given for alphabetic elements;
COMMENT punctuations and numbers are named descriptively.
COMMENT Unicode encoding begins at hex 1200 / dec 4608
COMMENT ***********
COMMENT Another Fine Admas Product : fisseha@cig.mot.com
COMMENT Available at ftp://ftp.cs.indiana.edu/pub/fidel/fonts/ethiomx12-uni.bdf
COMMENT See also ftp://ftp.cs.indiana.edu/pub/fidel/info/unicode.ps
COMMENT ======================================================================
FONT -Admas-Ethiomx12-Medium-R-Normal--12-120-100-100-m-104-Ethiopic-Unicode
SIZE 12 100 100
FONTBOUNDINGBOX 17 21 0 -4
STARTPROPERTIES 5
COPYRIGHT "GNU CopyLeft"
FONT_ASCENT 15
FONT_DESCENT 4
DEFAULT_CHAR 403
ENDPROPERTIES
CHARS 412
STARTCHAR he
ENCODING 4608
SWIDTH 960 0
DWIDTH 10 0
BBX 8 11 0 0
BITMAP
07
C3
C3
C3
C3
C3
C3
C6
C6
7C
38
ENDCHAR
STARTCHAR hu
ENCODING 4609
SWIDTH 960 0
DWIDTH 14 0
BBX 12 11 0 0
BITMAP
0700
C300
C300
C300
C3F0
C330
C300
C600
C600
7C00
3800
ENDCHAR
STARTCHAR hi
ENCODING 4610
SWIDTH 960 0
DWIDTH 10 0
BBX 8 12 0 0
BITMAP
66
C6
C6
C6
C6
7C
3C
0C
18
30
33
3F
ENDCHAR
STARTCHAR ha
ENCODING 4611
SWIDTH 960 0
DWIDTH 9 0
BBX 7 12 0 0
BITMAP
66
C6
C6
C6
C6
7C
3C
0C
18
30
30
30
ENDCHAR
STARTCHAR hE
ENCODING 4612
SWIDTH 960 0
DWIDTH 9 0
BBX 7 12 0 0
BITMAP
66
C6
C6
C6
C6
7C
3C
0C
1C
34
32
3E
ENDCHAR
STARTCHAR h
ENCODING 4613
SWIDTH 960 0
DWIDTH 11 0
BBX 9 11 0 0
BITMAP
C380
C180
E180
7180
3180
6180
6180
6180
6300
3F00
1E00
ENDCHAR
STARTCHAR ho
ENCODING 4614
SWIDTH 960 0
DWIDTH 13 0
BBX 11 11 0 0
BITMAP
03C0
C320
C360
C380
C300
C300
C300
C600
C600
7C00
3800
ENDCHAR
STARTCHAR le
ENCODING 4616
SWIDTH 960 0
DWIDTH 9 0
BBX 7 12 0 0
BITMAP
30
30
30
78
7C
CE
C6
C6
C6
C6
C6
C6
ENDCHAR
STARTCHAR lu
ENCODING 4617
SWIDTH 960 0
DWIDTH 13 0
BBX 11 12 0 0
BITMAP
3000
3000
3000
7800
7C00
CE00
C600
C600
C7E0
C660
C600
C600
ENDCHAR
STARTCHAR li
ENCODING 4618
SWIDTH 960 0
DWIDTH 13 0
BBX 11 12 0 0
BITMAP
3000
3000
3000
7800
7C00
CE00
C600
C600
C600
C600
C660
C7E0
ENDCHAR
STARTCHAR la
ENCODING 4619
SWIDTH 960 0
DWIDTH 9 0
BBX 7 12 0 0
BITMAP
30
30
30
78
7C
CE
C6
C6
C6
06
06
06
ENDCHAR
STARTCHAR lE
ENCODING 4620
SWIDTH 960 0
DWIDTH 13 0
BBX 11 12 0 0
BITMAP
3000
3000
3000
7800
7C00
CE00
C600
C600
C600
C7C0
C660
C7C0
ENDCHAR
STARTCHAR l
ENCODING 4621
SWIDTH 960 0
DWIDTH 10 0
BBX 8 12 0 0
BITMAP
18
18
18
3C
3E
67
63
C3
C3
F3
DB
F3
ENDCHAR
STARTCHAR lo
ENCODING 4622
SWIDTH 960 0
DWIDTH 14 0
BBX 12 12 0 0
BITMAP
3000
3000
3000
7800
7C00
CE00
C600
C7E0
C6B0
C6E0
C600
C600
ENDCHAR
STARTCHAR lWa
ENCODING 4623
SWIDTH 960 0
DWIDTH 12 0
BBX 10 14 0 -2
BITMAP
3000
3000
3000
7800
7C00
CE00
C600
C600
C600
0600
0600
0600
1F80
30C0
ENDCHAR
STARTCHAR He
ENCODING 4624
SWIDTH 960 0
DWIDTH 12 0
BBX 10 12 0 0
BITMAP
0C00
0C00
0C00
0C00
0C00
3F00
6D80
6D80
CCC0
CCC0
CCC0
CCC0
ENDCHAR
STARTCHAR Hu
ENCODING 4625
SWIDTH 960 0
DWIDTH 16 0
BBX 14 12 0 0
BITMAP
0C00
0C00
0C00
0C00
0C00
3F00
6D80
6D80
CCFC
CCCC
CCC0
CCC0
ENDCHAR
STARTCHAR Hi
ENCODING 4626
SWIDTH 960 0
DWIDTH 16 0
BBX 14 12 0 0
BITMAP
0C00
0C00
0C00
0C00
0C00
3F00
6D80
6D80
CCC0
CCC0
CCCC
CCFC
ENDCHAR
STARTCHAR Ha
ENCODING 4627
SWIDTH 960 0
DWIDTH 12 0
BBX 10 12 0 0
BITMAP
0C00
0C00
0C00
0C00
0C00
3F00
6D80
6D80
CCC0
00C0
00C0
00C0
ENDCHAR
STARTCHAR HE
ENCODING 4628
SWIDTH 960 0
DWIDTH 15 0
BBX 13 12 0 0
BITMAP
0C00
0C00
0C00
0C00
0C00
3F00
6D80
6D80
CC80
CCF0
CC98
CCF0
ENDCHAR
STARTCHAR H
ENCODING 4629
SWIDTH 960 0
DWIDTH 12 0
BBX 10 12 0 0
BITMAP
3000
3000
3000
3C00
0C00
3F00
6D80
6D80
CCC0
CCC0
CCC0
CCC0
ENDCHAR
STARTCHAR Ho
ENCODING 4630
SWIDTH 960 0
DWIDTH 12 0
BBX 10 12 0 0
BITMAP
0C00
0C00
0C00
0C00
0C00
3F00
6D80
6D80
CCC0
C000
C000
C000
ENDCHAR
STARTCHAR HWa
ENCODING 4631
SWIDTH 960 0
DWIDTH 16 0
BBX 14 14 0 -2
BITMAP
0C00
0C00
0C00
0C00
0C00
3F00
6D80
6D80
CCC0
00C0
00C0
00C0
07F8
0E1C
ENDCHAR
STARTCHAR me
ENCODING 4632
SWIDTH 960 0
DWIDTH 14 0
BBX 12 8 0 2
BITMAP
3FF0
7FF0
4490
C590
8D10
9930
F1E0
F1C0
ENDCHAR
STARTCHAR mu
ENCODING 4633
SWIDTH 960 0
DWIDTH 17 0
BBX 15 8 0 2
BITMAP
3FF0
7FF0
4490
C59E
8D12
9932
F1E0
F1C0
ENDCHAR
STARTCHAR mi
ENCODING 4634
SWIDTH 960 0
DWIDTH 16 0
BBX 14 12 0 0
BITMAP
3FF0
7FF0
C510
8510
8A10
FBF0
71F0
0020
0020
0040
004C
007C
ENDCHAR
STARTCHAR ma
ENCODING 4635
SWIDTH 960 0
DWIDTH 14 0
BBX 12 12 0 0
BITMAP
3FF0
7FF0
C510
8510
8A10
FBF0
71F0
0020
0020
0040
0040
0040
ENDCHAR
STARTCHAR mE
ENCODING 4636
SWIDTH 960 0
DWIDTH 16 0
BBX 14 12 0 0
BITMAP
3FF0
7FF0
C510
8510
8A10
FBF0
71F0
0020
0020
0078
004C
0078
ENDCHAR
STARTCHAR m
ENCODING 4637
SWIDTH 960 0
DWIDTH 13 0
BBX 11 12 0 0
BITMAP
7FC0
7FE0
CA20
8A20
8A20
8BE0
F9C0
7800
0800
1800
3000
6000
ENDCHAR
STARTCHAR mo
ENCODING 4638
SWIDTH 960 0
DWIDTH 13 0
BBX 11 12 0 0
BITMAP
7FC0
7FE0
CA20
8A20
8A20
8BE0
F9C0
7800
0800
0800
0800
0C00
ENDCHAR
STARTCHAR mWa
ENCODING 4639
SWIDTH 960 0
DWIDTH 15 0
BBX 13 14 0 -2
BITMAP
3FF0
7FF0
C510
8510
8A10
FBF0
71F0
0020
0020
0060
0040
0040
03F0
0618
ENDCHAR
STARTCHAR `se/s2e
ENCODING 4640
SWIDTH 960 0
DWIDTH 12 0
BBX 10 9 0 1
BITMAP
4CC0
CCC0
CCC0
CCC0
CCC0
CD80
CF80
6C00
3C00
ENDCHAR
STARTCHAR `su/s2u
ENCODING 4641
SWIDTH 960 0
DWIDTH 15 0
BBX 13 9 0 1
BITMAP
4D80
CD80
CDF8
CD98
CD80
CD80
CF80
6C00
3C00
ENDCHAR
STARTCHAR `si/s2i
ENCODING 4642
SWIDTH 960 0
DWIDTH 16 0
BBX 14 12 0 0
BITMAP
CC80
CCC0
CCC0
CCC0
CCC0
EDC0
7FC0
00C0
00C0
00C0
00CC
00FC
ENDCHAR
STARTCHAR `sa/s2a
ENCODING 4643
SWIDTH 960 0
DWIDTH 12 0
BBX 10 12 0 0
BITMAP
CC80
CCC0
CCC0
CCC0
CCC0
EDC0
7FC0
00C0
00C0
00C0
00C0
00C0
ENDCHAR
STARTCHAR `sE/s2E
ENCODING 4644
SWIDTH 960 0
DWIDTH 14 0
BBX 12 12 0 0
BITMAP
CC80
CCC0
CCC0
CCC0
CCC0
EDC0
7FC0
00C0
00C0
00E0
0190
01E0
ENDCHAR
STARTCHAR `s/s2
ENCODING 4645
SWIDTH 960 0
DWIDTH 12 0
BBX 10 12 0 0
BITMAP
CC80
CCC0
CCC0
CCC0
CCC0
EDC0
FF80
E000
C000
C000
C000
C000
ENDCHAR
STARTCHAR `so/s2o
ENCODING 4646
SWIDTH 960 0
DWIDTH 12 0
BBX 10 12 0 0
BITMAP
CCC0
CCC0
CCC0
CCC0
CCC0
EDC0
7F80
1C00
1800
3800
7000
6000
ENDCHAR
STARTCHAR `sWa/s2Wa
ENCODING 4647
SWIDTH 960 0
DWIDTH 16 0
BBX 14 14 0 -2
BITMAP
CC80
CCC0
CCC0
CCC0
CCC0
EDC0
7FC0
00C0
00C0
00C0
00C0
00C0
07F8
0E1C
ENDCHAR
STARTCHAR re
ENCODING 4648
SWIDTH 960 0
DWIDTH 10 0
BBX 8 12 0 0
BITMAP
0C
0C
0C
18
38
70
E0
C0
C0
E3
7F
3F
ENDCHAR
STARTCHAR ru
ENCODING 4649
SWIDTH 960 0
DWIDTH 12 0
BBX 10 12 0 0
BITMAP
0C00
0C00
1C00
3800
7000
6000
C000
E000
7FC0
3FC0
0600
0600
ENDCHAR
STARTCHAR ri
ENCODING 4650
SWIDTH 960 0
DWIDTH 11 0
BBX 9 12 0 0
BITMAP
0C00
0C00
0C00
1800
3800
7000
E000
C300
C380
E180
7F00
3E00
ENDCHAR
STARTCHAR ra
ENCODING 4651
SWIDTH 960 0
DWIDTH 13 0
BBX 11 12 0 0
BITMAP
0C00
0C00
0C00
1800
3800
7000
E000
C1E0
C3E0
E660
7E00
3C00
ENDCHAR
STARTCHAR rE
ENCODING 4652
SWIDTH 960 0
DWIDTH 12 0
BBX 10 12 0 0
BITMAP
0C00
0C00
0C00
1800
3800
7000
E000
C000
C000
E780
7CC0
3F80
ENDCHAR
STARTCHAR r
ENCODING 4653
SWIDTH 960 0
DWIDTH 10 0
BBX 8 11 0 0
BITMAP
3F
7F
C3
C0
C0
C0
C0
C0
C3
FF
7E
ENDCHAR
STARTCHAR ro
ENCODING 4654
SWIDTH 960 0
DWIDTH 12 0
BBX 10 11 0 0
BITMAP
3F80
7CC0
C780
C000
C000
C000
C000
C000
C300
FF00
7E00
ENDCHAR
STARTCHAR rWa
ENCODING 4655
SWIDTH 960 0
DWIDTH 13 0
BBX 11 13 0 0
BITMAP
C0C0
7380
0C00
0C00
1800
3800
7000
E000
C1E0
C3E0
E660
7E00
3C00
ENDCHAR
STARTCHAR se
ENCODING 4656
SWIDTH 960 0
DWIDTH 9 0
BBX 7 12 0 0
BITMAP
10
10
38
7C
C6
C6
C6
C6
C6
C6
C6
C6
ENDCHAR
STARTCHAR su
ENCODING 4657
SWIDTH 960 0
DWIDTH 13 0
BBX 11 12 0 0
BITMAP
1000
1000
3800
7C00
C600
C600
C600
C7E0
C660
C600
C600
C600
ENDCHAR
STARTCHAR si
ENCODING 4658
SWIDTH 960 0
DWIDTH 13 0
BBX 11 12 0 0
BITMAP
1000
1000
3800
7C00
C600
C600
C600
C600
C600
C600
C660
C7E0
ENDCHAR
STARTCHAR sa
ENCODING 4659
SWIDTH 960 0
DWIDTH 9 0
BBX 7 12 0 0
BITMAP
10
10
38
7C
C6
C6
C6
C6
C6
06
06
06
ENDCHAR
STARTCHAR sE
ENCODING 4660
SWIDTH 960 0
DWIDTH 12 0
BBX 10 12 0 0
BITMAP
1000
1000
3800
7C00
C600
C600
C600
C600
C700
C680
C640
C7C0
ENDCHAR
STARTCHAR s
ENCODING 4661
SWIDTH 960 0
DWIDTH 10 0
BBX 8 11 0 0
BITMAP
30
18
1C
3E
63
63
63
63
63
63
63
ENDCHAR
STARTCHAR so
ENCODING 4662
SWIDTH 960 0
DWIDTH 9 0
BBX 7 12 0 0
BITMAP
10
10
38
7C
C6
C6
C6
C6
C6
C0
C0
C0
ENDCHAR
STARTCHAR sWa
ENCODING 4663
SWIDTH 960 0
DWIDTH 12 0
BBX 10 14 0 -2
BITMAP
1000
1000
3800
7C00
C600
C600
C600
C600
C600
0600
0600
0600
1F80
30C0
ENDCHAR
STARTCHAR xe
ENCODING 4664
SWIDTH 960 0
DWIDTH 11 0
BBX 9 12 0 0
BITMAP
C180
7F00
0800
1C00
3E00
6300
6300
6300
6300
6300
6300
6300
ENDCHAR
STARTCHAR xu
ENCODING 4665
SWIDTH 960 0
DWIDTH 14 0
BBX 12 12 0 0
BITMAP
C180
7F00
0800
1C00
3E00
6300
6300
63F0
6330
6330
6300
6300
ENDCHAR
STARTCHAR xi
ENCODING 4666
SWIDTH 960 0
DWIDTH 14 0
BBX 12 12 0 0
BITMAP
C180
7F00
0800
1C00
3E00
6300
6300
6300
6300
6300
6330
63F0
ENDCHAR
STARTCHAR xa
ENCODING 4667
SWIDTH 960 0
DWIDTH 11 0
BBX 9 12 0 0
BITMAP
C180
7F00
0800
1C00
3E00
6300
6300
6300
6300
0300
0300
0300
ENDCHAR
STARTCHAR xE
ENCODING 4668
SWIDTH 960 0
DWIDTH 14 0
BBX 12 12 0 0
BITMAP
C180
7F00
0800
1C00
3E00
6300
6300
6300
6300
63E0
6330
63E0
ENDCHAR
STARTCHAR x
ENCODING 4669
SWIDTH 960 0
DWIDTH 11 0
BBX 9 12 0 0
BITMAP
C300
7E00
0C00
0E00
1F00
1980
3180
3180
3180
3180
3180
3180
ENDCHAR
STARTCHAR xo
ENCODING 4670
SWIDTH 960 0
DWIDTH 11 0
BBX 9 12 0 0
BITMAP
C180
7F00
0800
1C00
3E00
6300
6300
6300
6300
6000
6000
6000
ENDCHAR
STARTCHAR xWa
ENCODING 4671
SWIDTH 960 0
DWIDTH 13 0
BBX 11 14 0 -2
BITMAP
C180
7F00
0800
1C00
3E00
6300
6300
6300
6300
6300
0300
0300
0FC0
1860
ENDCHAR
STARTCHAR qe
ENCODING 4672
SWIDTH 960 0
DWIDTH 12 0
BBX 10 12 0 0
BITMAP
0C00
0C00
0C00
1F80
6CC0
CCC0
CD80
7E00
0C00
0C00
0C00
0C00
ENDCHAR
STARTCHAR qu
ENCODING 4673
SWIDTH 960 0
DWIDTH 12 0
BBX 10 12 0 0
BITMAP
0C00
0C00
0C00
1F80
6CC0
CCC0
CD80
7E00
0C00
0FC0
0CC0
0C00
ENDCHAR
STARTCHAR qi
ENCODING 4674
SWIDTH 960 0
DWIDTH 12 0
BBX 10 12 0 0
BITMAP
0C00
0C00
0C00
1F80
6CC0
CCC0
CD80
7E00
0C00
0C00
0CC0
0FC0
ENDCHAR
STARTCHAR qa
ENCODING 4675
SWIDTH 960 0
DWIDTH 12 0
BBX 10 12 0 0
BITMAP
0C00
0C00
0C00
1F80
6CC0
CCC0
CD80
7E00
0C00
1800
3000
6000
ENDCHAR
STARTCHAR qE
ENCODING 4676
SWIDTH 960 0
DWIDTH 12 0
BBX 10 12 0 0
BITMAP
0C00
0C00
0C00
1F80
6CC0
CCC0
CD80
7E00
0C00
0F80
0CC0
0F80
ENDCHAR
STARTCHAR q
ENCODING 4677
SWIDTH 960 0
DWIDTH 12 0
BBX 10 12 0 0
BITMAP
3000
3000
3C00
0C00
1F80
6CC0
CCC0
CD80
7E00
0C00
0C00
0C00
ENDCHAR
STARTCHAR qo
ENCODING 4678
SWIDTH 960 0
DWIDTH 12 0
BBX 10 12 0 0
BITMAP
0700
0980
0B00
0C00
1F80
6CC0
CCC0
CD80
7E00
0C00
0C00
0C00
ENDCHAR
STARTCHAR qWe
ENCODING 4680
SWIDTH 960 0
DWIDTH 13 0
BBX 11 12 0 0
BITMAP
0C00
0C00
0C00
1F80
6CC0
CCC0
CD80
7E00
0FC0
0D60
0DC0
0C00
ENDCHAR
STARTCHAR qWi
ENCODING 4682
SWIDTH 960 0
DWIDTH 16 0
BBX 14 12 0 0
BITMAP
0C00
0C00
0C00
1F80
6CD8
CCD8
CDF8
7E0C
0C0C
0C00
0C00
0C00
ENDCHAR
STARTCHAR qWa
ENCODING 4683
SWIDTH 960 0
DWIDTH 12 0
BBX 10 14 0 -2
BITMAP
0C00
0C00
0C00
1F80
6CC0
CCC0
CD80
7E00
0C00
0C00
0C00
0C00
3F00
6180
ENDCHAR
STARTCHAR qWE
ENCODING 4684
SWIDTH 960 0
DWIDTH 12 0
BBX 10 14 0 -2
BITMAP
0C00
0C00
0C00
1F80
6CC0
CCC0
CD80
7E00
0C00
0C00
0F80
0CC0
3F80
6000
ENDCHAR
STARTCHAR qWu/qW
ENCODING 4685
SWIDTH 960 0
DWIDTH 16 0
BBX 14 12 0 0
BITMAP
0C00
0C30
0C30
1FFC
6CCC
CCC0
CD80
7E00
0C00
0C00
0C00
0C00
ENDCHAR
STARTCHAR Qe
ENCODING 4688
SWIDTH 960 0
DWIDTH 12 0
BBX 10 12 0 0
BITMAP
6180
3F00
0C00
0C00
1F80
6CC0
CCC0
CD80
7E00
0C00
0C00
0C00
ENDCHAR
STARTCHAR Qu
ENCODING 4689
SWIDTH 960 0
DWIDTH 12 0
BBX 10 12 0 0
BITMAP
6180
3F00
0C00
0C00
1F80
6CC0
CCC0
CD80
7E00
0C00
0FC0
0CC0
ENDCHAR
STARTCHAR Qi
ENCODING 4690
SWIDTH 960 0
DWIDTH 12 0
BBX 10 12 0 0
BITMAP
6180
3F00
0C00
0C00
1F80
6CC0
CCC0
CD80
7E00
0C00
0CC0
0FC0
ENDCHAR
STARTCHAR Qa
ENCODING 4691
SWIDTH 960 0
DWIDTH 12 0
BBX 10 12 0 0
BITMAP
6180
3F00
0C00
0C00
1F80
6CC0
CCC0
CD80
7E00
0C00
1800
3000
ENDCHAR
STARTCHAR QE
ENCODING 4692
SWIDTH 960 0
DWIDTH 12 0
BBX 10 12 0 0
BITMAP
6180
3F00
0C00
1F80
6CC0
CCC0
CD80
7E00
0C00
0F80
0CC0
0F80
ENDCHAR
STARTCHAR Q
ENCODING 4693
SWIDTH 960 0
DWIDTH 13 0
BBX 11 12 0 0
BITMAP
C300
7E00
1800
1E00
0600
0FC0
3660
6660
66C0
3F00
0600
0600
ENDCHAR
STARTCHAR Qo
ENCODING 4694
SWIDTH 960 0
DWIDTH 12 0
BBX 10 12 0 0
BITMAP
60C0
3F80
0900
0B00
0C00
1F80
6CC0
CCC0
CD80
7E00
0C00
0C00
ENDCHAR
STARTCHAR QWe
ENCODING 4696
SWIDTH 960 0
DWIDTH 13 0
BBX 11 12 0 0
BITMAP
6180
3F00
0C00
1F80
6CC0
CCC0
CD80
7E00
0FC0
0D60
0DC0
0C00
ENDCHAR
STARTCHAR QWi
ENCODING 4698
SWIDTH 960 0
DWIDTH 16 0
BBX 14 12 0 0
BITMAP
6180
3F00
0C00
0C00
1F80
6CD8
CCD8
CDF8
7E0C
0C0C
0C00
0C00
ENDCHAR
STARTCHAR QWa
ENCODING 4699
SWIDTH 960 0
DWIDTH 12 0
BBX 10 14 0 -2
BITMAP
6180
3F00
0C00
0C00
1F80
6CC0
CCC0
CD80
7E00
0C00
0C00
0C00
3F00
6180
ENDCHAR
STARTCHAR QWE
ENCODING 4700
SWIDTH 960 0
DWIDTH 12 0
BBX 10 14 0 -2
BITMAP
6180
3F00
0C00
0C00
1F80
6CC0
CCC0
CD80
7E00
0C00
0F80
0CC0
3F80
6000
ENDCHAR
STARTCHAR QWu/QW
ENCODING 4701
SWIDTH 960 0
DWIDTH 16 0
BBX 14 12 0 0
BITMAP
6180
3F00
0C30
0C30
1FFC
6CCC
CCC0
CD80
7E00
0C00
0C00
0C00
ENDCHAR
STARTCHAR be
ENCODING 4704
SWIDTH 960 0
DWIDTH 9 0
BBX 7 11 0 0
BITMAP
38
7C
C6
C6
C6
C6
C6
C6
C6
C6
C6
ENDCHAR
STARTCHAR bu
ENCODING 4705
SWIDTH 960 0
DWIDTH 13 0
BBX 11 11 0 0
BITMAP
3800
7C00
C600
C600
C600
C7E0
C660
C660
C600
C600
C600
ENDCHAR
STARTCHAR bi
ENCODING 4706
SWIDTH 960 0
DWIDTH 13 0
BBX 11 11 0 0
BITMAP
3800
7C00
C600
C600
C600
C600
C600
C600
C600
C660
C7E0
ENDCHAR
STARTCHAR ba
ENCODING 4707
SWIDTH 960 0
DWIDTH 9 0
BBX 7 11 0 0
BITMAP
38
7C
C6
C6
C6
C6
C6
06
06
06
06
ENDCHAR
STARTCHAR bE
ENCODING 4708
SWIDTH 960 0
DWIDTH 13 0
BBX 11 11 0 0
BITMAP
3800
7C00
C600
C600
C600
C600
C600
C600
C7C0
C660
C7C0
ENDCHAR
STARTCHAR b
ENCODING 4709
SWIDTH 960 0
DWIDTH 13 0
BBX 11 11 0 0
BITMAP
0380
07C0
0C60
0C60
0C60
FC60
CC60
CC60
0C60
0C60
0C60
ENDCHAR
STARTCHAR bo
ENCODING 4710
SWIDTH 960 0
DWIDTH 9 0
BBX 7 11 0 0
BITMAP
38
7C
C6
C6
C6
C6
C6
C0
C0
C0
C0
ENDCHAR
STARTCHAR bWa
ENCODING 4711
SWIDTH 960 0
DWIDTH 12 0
BBX 10 13 0 -2
BITMAP
3800
7C00
C600
C600
C600
C600
C600
0600
0600
0600
0600
1F80
30C0
ENDCHAR
STARTCHAR ve
ENCODING 4712
SWIDTH 960 0
DWIDTH 11 0
BBX 9 12 0 0
BITMAP
C180
7F00
0000
1C00
3E00
6300
6300
6300
6300
6300
6300
6300
ENDCHAR
STARTCHAR vu
ENCODING 4713
SWIDTH 960 0
DWIDTH 14 0
BBX 12 12 0 0
BITMAP
C180
7F00
0000
1C00
3E00
6300
6300
63F0
6330
6330
6300
6300
ENDCHAR
STARTCHAR vi
ENCODING 4714
SWIDTH 960 0
DWIDTH 14 0
BBX 12 12 0 0
BITMAP
C180
7F00
0000
1C00
3E00
6300
6300
6300
6300
6300
6330
63F0
ENDCHAR
STARTCHAR va
ENCODING 4715
SWIDTH 960 0
DWIDTH 11 0
BBX 9 12 0 0
BITMAP
C180
7F00
0000
1C00
3E00
6300
6300
6300
6300
6300
0300
0300
ENDCHAR
STARTCHAR vE
ENCODING 4716
SWIDTH 960 0
DWIDTH 14 0
BBX 12 12 0 0
BITMAP
C180
7F00
0000
1C00
3E00
6300
6300
6300
6300
63E0
6330
63E0
ENDCHAR
STARTCHAR v
ENCODING 4717
SWIDTH 960 0
DWIDTH 14 0
BBX 12 12 0 0
BITMAP
1830
0FE0
0000
0380
07C0
0C60
0C60
FC60
CC60
CC60
0C60
0C60
ENDCHAR
STARTCHAR vo
ENCODING 4718
SWIDTH 960 0
DWIDTH 11 0
BBX 9 12 0 0
BITMAP
C180
7F00
0000
1C00
3E00
6300
6300
6300
6300
6300
6000
6000
ENDCHAR
STARTCHAR vWa
ENCODING 4719
SWIDTH 960 0
DWIDTH 13 0
BBX 11 14 0 -2
BITMAP
C180
7F00
0000
1C00
3E00
6300
6300
6300
6300
6300
0300
0300
0FC0
1860
ENDCHAR
STARTCHAR te
ENCODING 4720
SWIDTH 960 0
DWIDTH 14 0
BBX 12 12 0 0
BITMAP
0E00
0600
0600
0600
7FE0
FFF0
C630
0600
0600
0600
0600
0600
ENDCHAR
STARTCHAR tu
ENCODING 4721
SWIDTH 960 0
DWIDTH 14 0
BBX 12 12 0 0
BITMAP
0E00
0600
0600
0600
7FE0
FFF0
C630
0600
07E0
0660
0600
0600
ENDCHAR
STARTCHAR ti
ENCODING 4722
SWIDTH 960 0
DWIDTH 14 0
BBX 12 12 0 0
BITMAP
0E00
0600
0600
0600
7FE0
FFF0
C630
0600
0600
0600
0660
07E0
ENDCHAR
STARTCHAR ta
ENCODING 4723
SWIDTH 960 0
DWIDTH 14 0
BBX 12 12 0 0
BITMAP
0E00
0600
0600
0600
7FE0
FFF0
C630
0600
0600
0E00
1C00
3800
ENDCHAR
STARTCHAR tE
ENCODING 4724
SWIDTH 960 0
DWIDTH 14 0
BBX 12 12 0 0
BITMAP
0E00
0600
0600
0600
7FE0
FFF0
C630
0600
0600
07C0
0660
07C0
ENDCHAR
STARTCHAR t
ENCODING 4725
SWIDTH 960 0
DWIDTH 14 0
BBX 12 12 0 0
BITMAP
1800
1C00
0E00
0600
0600
7FE0
FFF0
C630
0600
0600
0600
0600
ENDCHAR
STARTCHAR to
ENCODING 4726
SWIDTH 960 0
DWIDTH 14 0
BBX 12 12 0 0
BITMAP
0F80
0C80
0580
0600
7FE0
FFF0
C630
0600
0600
0600
0600
0600
ENDCHAR
STARTCHAR tWa
ENCODING 4727
SWIDTH 960 0
DWIDTH 14 0
BBX 12 14 0 -2
BITMAP
0E00
0600
0600
0600
7FE0
FFF0
C630
0600
0600
0600
0600
0600
1F80
30C0
ENDCHAR
STARTCHAR ce
ENCODING 4728
SWIDTH 960 0
DWIDTH 14 0
BBX 12 12 0 0
BITMAP
6060
7FE0
FFF0
C630
0600
7FE0
FFF0
C630
0600
0600
0600
0600
ENDCHAR
STARTCHAR cu
ENCODING 4729
SWIDTH 960 0
DWIDTH 14 0
BBX 12 12 0 0
BITMAP
6060
7FE0
FFF0
C630
0600
7FE0
FFF0
C630
0600
07E0
0660
0600
ENDCHAR
STARTCHAR ci
ENCODING 4730
SWIDTH 960 0
DWIDTH 14 0
BBX 12 12 0 0
BITMAP
6060
7FE0
FFF0
C630
0600
7FE0
FFF0
C630
0600
0600
0660
07E0
ENDCHAR
STARTCHAR ca
ENCODING 4731
SWIDTH 960 0
DWIDTH 14 0
BBX 12 12 0 0
BITMAP
6060
7FE0
FFF0
C630
0600
7FE0
FFF0
C630
0600
0E00
1C00
3800
ENDCHAR
STARTCHAR cE
ENCODING 4732
SWIDTH 960 0
DWIDTH 14 0
BBX 12 12 0 0
BITMAP
6060
7FE0
FFF0
C630
0600
7FE0
FFF0
C630
0600
07C0
0660
07C0
ENDCHAR
STARTCHAR c
ENCODING 4733
SWIDTH 960 0
DWIDTH 15 0
BBX 13 12 0 0
BITMAP
6180
7F80
FFC0
CCC0
0E00
0300
3FF0
7FF8
6318
0300
0300
0300
ENDCHAR
STARTCHAR co
ENCODING 4734
SWIDTH 960 0
DWIDTH 14 0
BBX 12 12 0 0
BITMAP
30C0
7FE0
6960
0900
0600
7FE0
FFF0
C630
0600
0600
0600
0600
ENDCHAR
STARTCHAR cWa
ENCODING 4735
SWIDTH 960 0
DWIDTH 14 0
BBX 12 14 0 -2
BITMAP
6060
7FE0
FFF0
C630
0600
7FE0
FFF0
C630
0600
0600
0600
0600
1F80
30C0
ENDCHAR
STARTCHAR `he/h2e
ENCODING 4736
SWIDTH 960 0
DWIDTH 10 0
BBX 8 12 0 0
BITMAP
0C
0C
0C
FC
CF
03
03
03
03
03
03
03
ENDCHAR
STARTCHAR `hu/h2u
ENCODING 4737
SWIDTH 960 0
DWIDTH 14 0
BBX 12 12 0 0
BITMAP
0C00
0C00
0C00
FC00
CF00
0300
0300
03F0
0330
0300
0300
0300
ENDCHAR
STARTCHAR `hi/h2i
ENCODING 4738
SWIDTH 960 0
DWIDTH 14 0
BBX 12 12 0 0
BITMAP
0C00
0C00
0C00
FC00
CF00
0300
0300
0300
0300
0300
0330
03F0
ENDCHAR
STARTCHAR `ha/h2a
ENCODING 4739
SWIDTH 960 0
DWIDTH 10 0
BBX 8 12 0 0
BITMAP
0C
0C
0C
FC
CF
03
03
03
0E
18
30
30
ENDCHAR
STARTCHAR `hE/h2E
ENCODING 4740
SWIDTH 960 0
DWIDTH 14 0
BBX 12 12 0 0
BITMAP
0C00
0C00
0C00
FC00
CF00
0300
0300
0300
0300
03E0
0330
03E0
ENDCHAR
STARTCHAR `h/h2
ENCODING 4741
SWIDTH 960 0
DWIDTH 10 0
BBX 8 12 0 0
BITMAP
0C
0C
0C
3C
6F
C3
C3
03
03
03
03
03
ENDCHAR
STARTCHAR `ho/h2o
ENCODING 4742
SWIDTH 960 0
DWIDTH 14 0
BBX 12 12 0 0
BITMAP
07E0
0F90
18E0
F800
D800
1800
1F80
0F80
0180
0180
0180
0180
ENDCHAR
STARTCHAR hWe
ENCODING 4744
SWIDTH 960 0
DWIDTH 15 0
BBX 13 12 0 0
BITMAP
0C00
0C00
0C00
FC00
CF00
0300
03F0
0358
0370
0300
0300
0300
ENDCHAR
STARTCHAR hWi
ENCODING 4746
SWIDTH 960 0
DWIDTH 15 0
BBX 13 12 0 0
BITMAP
0C00
0C00
0C00
FC00
CF00
0330
0330
03F0
0318
0318
0300
0300
ENDCHAR
STARTCHAR hWa
ENCODING 4747
SWIDTH 960 0
DWIDTH 13 0
BBX 11 14 0 -2
BITMAP
0C00
0C00
0C00
FC00
CF00
0300
0300
0300
0300
0300
0300
0300
0FC0
1860
ENDCHAR
STARTCHAR hWE
ENCODING 4748
SWIDTH 960 0
DWIDTH 14 0
BBX 12 14 0 -2
BITMAP
0C00
0C00
0C00
FC00
CF00
0300
0300
0300
0300
0300
03E0
0330
0FE0
1800
ENDCHAR
STARTCHAR hWu/hW
ENCODING 4749
SWIDTH 960 0
DWIDTH 15 0
BBX 13 12 0 0
BITMAP
0C00
0C00
0C00
FC60
CF60
03F8
0318
0300
0300
0300
0300
0300
ENDCHAR
STARTCHAR ne
ENCODING 4752
SWIDTH 960 0
DWIDTH 7 0
BBX 5 12 0 0
BITMAP
C0
C0
C0
F0
38
30
30
30
60
60
60
60
ENDCHAR
STARTCHAR nu
ENCODING 4753
SWIDTH 960 0
DWIDTH 9 0
BBX 7 12 0 0
BITMAP
C0
C0
C0
F0
38
30
30
3E
66
60
60
60
ENDCHAR
STARTCHAR ni
ENCODING 4754
SWIDTH 960 0
DWIDTH 9 0
BBX 7 12 0 0
BITMAP
C0
C0
C0
F0
38
30
30
30
60
60
66
7E
ENDCHAR
STARTCHAR na
ENCODING 4755
SWIDTH 960 0
DWIDTH 11 0
BBX 9 12 0 0
BITMAP
1F00
3F80
6180
C000
E000
7C00
0E00
0600
0400
0C00
0C00
0C00
ENDCHAR
STARTCHAR nE
ENCODING 4756
SWIDTH 960 0
DWIDTH 8 0
BBX 6 12 0 0
BITMAP
C0
C0
C0
F0
38
30
30
30
78
64
6C
78
ENDCHAR
STARTCHAR n
ENCODING 4757
SWIDTH 960 0
DWIDTH 10 0
BBX 8 12 0 0
BITMAP
FF
FE
C6
0C
1F
03
06
0C
0C
18
18
30
ENDCHAR
STARTCHAR no
ENCODING 4758
SWIDTH 960 0
DWIDTH 13 0
BBX 11 12 0 0
BITMAP
1FC0
3F20
6160
C0C0
E000
7C00
0E00
0600
0400
0C00
0C00
0C00
ENDCHAR
STARTCHAR nWa
ENCODING 4759
SWIDTH 960 0
DWIDTH 11 0
BBX 9 13 0 -2
BITMAP
1F00
3F80
6180
C000
E000
7C00
0E00
0600
0400
0C00
0C00
3F00
6180
ENDCHAR
STARTCHAR Ne
ENCODING 4760
SWIDTH 960 0
DWIDTH 12 0
BBX 10 12 0 0
BITMAP
6180
FFC0
8C40
0C00
0F00
0380
0300
0300
0600
0600
0600
0600
ENDCHAR
STARTCHAR Nu
ENCODING 4761
SWIDTH 960 0
DWIDTH 13 0
BBX 11 12 0 0
BITMAP
6180
FFC0
8C40
0C00
0F00
0380
0300
03E0
0660
0600
0600
0600
ENDCHAR
STARTCHAR Ni
ENCODING 4762
SWIDTH 960 0
DWIDTH 13 0
BBX 11 12 0 0
BITMAP
6180
FFC0
8C40
0C00
0F00
0380
0300
0300
0600
0600
0660
07E0
ENDCHAR
STARTCHAR Na
ENCODING 4763
SWIDTH 960 0
DWIDTH 13 0
BBX 11 13 0 0
BITMAP
30C0
7FE0
4620
1F00
3F80
6180
C000
E000
7C00
0E00
0600
0C00
0C00
ENDCHAR
STARTCHAR NE
ENCODING 4764
SWIDTH 960 0
DWIDTH 12 0
BBX 10 12 0 0
BITMAP
6180
FFC0
8C40
0C00
0F00
0380
0300
0300
0780
0640
06C0
0780
ENDCHAR
STARTCHAR N
ENCODING 4765
SWIDTH 960 0
DWIDTH 12 0
BBX 10 13 0 0
BITMAP
6180
FFC0
8C40
3F80
7F00
6300
0600
0F80
0180
0300
0600
0600
0600
ENDCHAR
STARTCHAR No
ENCODING 4766
SWIDTH 960 0
DWIDTH 13 0
BBX 11 13 0 0
BITMAP
3180
7FC0
4440
1FC0
3F20
6160
C0C0
E000
7C00
0E00
0600
0C00
0C00
ENDCHAR
STARTCHAR NWa
ENCODING 4767
SWIDTH 960 0
DWIDTH 13 0
BBX 11 15 0 -2
BITMAP
30C0
7FE0
4620
1F00
3F80
6180
C000
E000
7C00
0E00
0600
0C00
0C00
3F00
6180
ENDCHAR
STARTCHAR e/a
ENCODING 4768
SWIDTH 960 0
DWIDTH 9 0
BBX 7 12 0 0
BITMAP
60
60
60
78
18
38
3C
6E
E6
C6
C6
C6
ENDCHAR
STARTCHAR u/U
ENCODING 4769
SWIDTH 960 0
DWIDTH 13 0
BBX 11 12 0 0
BITMAP
6000
6000
6000
7800
1800
3800
3C00
6E00
E7E0
C660
C600
C600
ENDCHAR
STARTCHAR i
ENCODING 4770
SWIDTH 960 0
DWIDTH 13 0
BBX 11 12 0 0
BITMAP
6000
6000
6000
7800
1800
3800
3C00
6E00
E600
C600
C660
C7E0
ENDCHAR
STARTCHAR a/A
ENCODING 4771
SWIDTH 960 0
DWIDTH 9 0
BBX 7 12 0 0
BITMAP
60
60
60
78
18
3C
6E
C6
C6
C6
06
06
ENDCHAR
STARTCHAR E
ENCODING 4772
SWIDTH 960 0
DWIDTH 13 0
BBX 11 12 0 0
BITMAP
6000
6000
6000
7800
1800
3800
3C00
6E00
E600
C7C0
C660
C7C0
ENDCHAR
STARTCHAR I
ENCODING 4773
SWIDTH 960 0
DWIDTH 9 0
BBX 7 12 0 0
BITMAP
C0
C0
E0
60
30
38
7C
EE
C6
C6
C6
C6
ENDCHAR
STARTCHAR o/O
ENCODING 4774
SWIDTH 960 0
DWIDTH 9 0
BBX 7 12 0 0
BITMAP
60
60
60
78
18
3C
6E
C6
C6
C6
C0
C0
ENDCHAR
STARTCHAR e3
ENCODING 4775
SWIDTH 960 0
DWIDTH 11 0
BBX 9 13 0 0
BITMAP
6300
7F00
D980
1800
1E00
0600
0E00
0F00
1B80
3980
3180
3180
3180
ENDCHAR
STARTCHAR ke
ENCODING 4776
SWIDTH 960 0
DWIDTH 11 0
BBX 9 11 0 0
BITMAP
C000
CE00
FF00
F180
3180
3180
3180
3180
3180
3180
3180
ENDCHAR
STARTCHAR ku
ENCODING 4777
SWIDTH 960 0
DWIDTH 15 0
BBX 13 11 0 0
BITMAP
C000
CE00
FF00
F180
3180
3180
31F8
3198
3180
3180
3180
ENDCHAR
STARTCHAR ki
ENCODING 4778
SWIDTH 960 0
DWIDTH 15 0
BBX 13 11 0 0
BITMAP
C000
CE00
FF00
F180
3180
3180
3180
3180
3180
3198
31F8
ENDCHAR
STARTCHAR ka
ENCODING 4779
SWIDTH 960 0
DWIDTH 11 0
BBX 9 11 0 0
BITMAP
C000
CE00
FF00
F180
3180
3180
3180
3180
0180
0180
0180
ENDCHAR
STARTCHAR kE
ENCODING 4780
SWIDTH 960 0
DWIDTH 15 0
BBX 13 11 0 0
BITMAP
C000
CE00
FF00
F180
3180
3180
3180
3180
31F0
3198
31F0
ENDCHAR
STARTCHAR k
ENCODING 4781
SWIDTH 960 0
DWIDTH 11 0
BBX 9 11 0 0
BITMAP
C000
CE00
DF00
F180
6180
7180
3180
3180
3180
3180
3180
ENDCHAR
STARTCHAR ko
ENCODING 4782
SWIDTH 960 0
DWIDTH 11 0
BBX 9 11 0 0
BITMAP
C000
CE00
FF00
F180
3180
3180
3180
3180
3000
3000
3000
ENDCHAR
STARTCHAR kWe
ENCODING 4784
SWIDTH 960 0
DWIDTH 15 0
BBX 13 11 0 0
BITMAP
C000
CC00
FE00
F300
3300
33F0
3358
3370
3300
3300
3300
ENDCHAR
STARTCHAR kWi
ENCODING 4786
SWIDTH 960 0
DWIDTH 15 0
BBX 13 11 0 0
BITMAP
C000
CC00
FE00
F300
3330
3330
33F0
3318
3318
3300
3300
ENDCHAR
STARTCHAR kWa
ENCODING 4787
SWIDTH 960 0
DWIDTH 14 0
BBX 12 13 0 -2
BITMAP
C000
CE00
FF00
F180
3180
3180
3180
3180
0180
0180
0180
07E0
0C30
ENDCHAR
STARTCHAR kWE
ENCODING 4788
SWIDTH 960 0
DWIDTH 18 0
BBX 16 13 0 -2
BITMAP
C000
CE00
FF00
F180
3180
3180
3180
3180
0180
01F0
0198
07F0
0C00
ENDCHAR
STARTCHAR kWu/kW
ENCODING 4789
SWIDTH 960 0
DWIDTH 15 0
BBX 13 11 0 0
BITMAP
C000
CC60
FE60
F3F8
3318
3300
3300
3300
3300
3300
3300
ENDCHAR
STARTCHAR Ke
ENCODING 4792
SWIDTH 960 0
DWIDTH 13 0
BBX 11 12 0 0
BITMAP
C300
7E00
1800
1B80
1FC0
0C60
0C60
0C60
0C60
0C60
0C60
0C60
ENDCHAR
STARTCHAR Ku
ENCODING 4793
SWIDTH 960 0
DWIDTH 17 0
BBX 15 12 0 0
BITMAP
C300
7E00
1800
1B80
1FC0
0C60
0C60
0C7E
0C66
0C60
0C60
0C60
ENDCHAR
STARTCHAR Ki
ENCODING 4794
SWIDTH 960 0
DWIDTH 17 0
BBX 15 12 0 0
BITMAP
C300
7E00
1800
1B80
1FC0
0C60
0C60
0C60
0C60
0C60
0C66
0C7E
ENDCHAR
STARTCHAR Ka
ENCODING 4795
SWIDTH 960 0
DWIDTH 13 0
BBX 11 12 0 0
BITMAP
C300
7E00
1800
1B80
1FC0
0C60
0C60
0C60
0C60
0060
0060
0060
ENDCHAR
STARTCHAR KE
ENCODING 4796
SWIDTH 960 0
DWIDTH 17 0
BBX 15 12 0 0
BITMAP
C300
7E00
1800
1B80
1FC0
0C60
0C60
0C60
0C60
0C7C
0C66
0C7C
ENDCHAR
STARTCHAR K
ENCODING 4797
SWIDTH 960 0
DWIDTH 14 0
BBX 12 12 0 0
BITMAP
C300
7E00
1800
1DC0
1FE0
0630
0730
0330
0330
0330
0330
0330
ENDCHAR
STARTCHAR Ko
ENCODING 4798
SWIDTH 960 0
DWIDTH 13 0
BBX 11 12 0 0
BITMAP
C300
7E00
1800
1B80
1FC0
0C60
0C60
0C60
0C60
0C00
0C00
0C00
ENDCHAR
STARTCHAR KWe
ENCODING 4800
SWIDTH 960 0
DWIDTH 18 0
BBX 16 12 0 0
BITMAP
C300
7E00
1800
1B80
1FC0
0C60
0C7E
0C6B
0C6E
0C60
0C60
0C60
ENDCHAR
STARTCHAR KWi
ENCODING 4802
SWIDTH 960 0
DWIDTH 18 0
BBX 16 12 0 0
BITMAP
C300
7E00
1800
1B80
1FC0
0C66
0C66
0C7E
0C63
0C63
0C60
0C60
ENDCHAR
STARTCHAR KWa
ENCODING 4803
SWIDTH 960 0
DWIDTH 16 0
BBX 14 14 0 -2
BITMAP
C300
7E00
1800
1B80
1FC0
0CE0
0C60
0C60
0C60
0060
0060
0060
01F8
030C
ENDCHAR
STARTCHAR KWE
ENCODING 4804
SWIDTH 960 0
DWIDTH 17 0
BBX 15 14 0 -2
BITMAP
C300
7E00
1800
1B80
1FC0
0CE0
0C60
0C60
0C60
0060
007C
0066
01FC
0300
ENDCHAR
STARTCHAR KWu/KW
ENCODING 4805
SWIDTH 960 0
DWIDTH 18 0
BBX 16 12 0 0
BITMAP
C300
7E00
180C
1B8C
1FFF
0C63
0C60
0C60
0C60
0C60
0C60
0C60
ENDCHAR
STARTCHAR we
ENCODING 4808
SWIDTH 960 0
DWIDTH 13 0
BBX 11 8 0 1
BITMAP
3FC0
76E0
C660
C660
CC60
CCC0
EDC0
7F00
ENDCHAR
STARTCHAR wu
ENCODING 4809
SWIDTH 960 0
DWIDTH 17 0
BBX 15 9 0 -1
BITMAP
3FC0
76E0
C660
C660
CC60
CCE0
EDC6
7FFC
000C
ENDCHAR
STARTCHAR wi
ENCODING 4810
SWIDTH 960 0
DWIDTH 13 0
BBX 11 12 0 0
BITMAP
3FC0
76E0
C660
C660
CC60
EEC0
7F80
0C00
0C00
1C00
18C0
1FC0
ENDCHAR
STARTCHAR wa
ENCODING 4811
SWIDTH 960 0
DWIDTH 13 0
BBX 11 12 0 0
BITMAP
3FC0
76E0
C660
C660
CC60
EEC0
7F80
0C00
0C00
0C00
0C00
1C00
ENDCHAR
STARTCHAR wE
ENCODING 4812
SWIDTH 960 0
DWIDTH 13 0
BBX 11 12 0 0
BITMAP
3FC0
76E0
C660
C660
CC60
EEC0
7F80
0C00
0C00
1E00
1980
1F00
ENDCHAR
STARTCHAR w
ENCODING 4813
SWIDTH 960 0
DWIDTH 17 0
BBX 15 8 0 1
BITMAP
3FC0
76E0
C660
C67E
CC66
CCC2
EDC0
7F00
ENDCHAR
STARTCHAR wo
ENCODING 4814
SWIDTH 960 0
DWIDTH 13 0
BBX 11 12 0 0
BITMAP
3FC0
76E0
C660
C660
CC60
EEC0
7F80
0C00
1800
3000
6000
6000
ENDCHAR
STARTCHAR `e/e2
ENCODING 4816
SWIDTH 960 0
DWIDTH 10 0
BBX 8 11 0 0
BITMAP
1E
63
C3
C3
C3
C3
C3
C3
C3
7F
60
ENDCHAR
STARTCHAR `u/u2
ENCODING 4817
SWIDTH 960 0
DWIDTH 14 0
BBX 12 11 0 0
BITMAP
1E00
6300
C300
C300
C300
C300
C3F0
C330
C300
7F00
6000
ENDCHAR
STARTCHAR `i/i2
ENCODING 4818
SWIDTH 960 0
DWIDTH 14 0
BBX 12 11 0 0
BITMAP
3E00
6300
C300
C300
C300
7F80
0180
0180
0300
0330
03F0
ENDCHAR
STARTCHAR `a/A2
ENCODING 4819
SWIDTH 960 0
DWIDTH 11 0
BBX 9 11 0 0
BITMAP
3E00
6300
C300
C300
C300
7F80
0180
0180
0180
0300
0300
ENDCHAR
STARTCHAR `E/E2
ENCODING 4820
SWIDTH 960 0
DWIDTH 14 0
BBX 12 11 0 0
BITMAP
3E00
6300
C300
C300
C300
7F80
0180
0180
03E0
0330
03E0
ENDCHAR
STARTCHAR `I/I2
ENCODING 4821
SWIDTH 960 0
DWIDTH 10 0
BBX 8 13 0 0
BITMAP
18
18
18
7E
E3
C3
C3
C3
C3
C3
C3
7F
60
ENDCHAR
STARTCHAR `o/o2
ENCODING 4822
SWIDTH 960 0
DWIDTH 10 0
BBX 8 12 0 0
BITMAP
3C
66
C3
C3
C3
E7
7E
3C
70
C0
C0
C0
ENDCHAR
STARTCHAR ze
ENCODING 4824
SWIDTH 960 0
DWIDTH 9 0
BBX 7 12 0 0
BITMAP
C6
C6
C6
C6
C6
FE
FE
C6
C6
C6
C6
C6
ENDCHAR
STARTCHAR zu
ENCODING 4825
SWIDTH 960 0
DWIDTH 13 0
BBX 11 12 0 0
BITMAP
C600
C600
C600
C600
C600
FE00
FE00
C7E0
C660
C660
C600
C600
ENDCHAR
STARTCHAR zi
ENCODING 4826
SWIDTH 960 0
DWIDTH 13 0
BBX 11 12 0 0
BITMAP
C600
C600
C600
C600
C600
FE00
FE00
C600
C600
C600
C660
C7E0
ENDCHAR
STARTCHAR za
ENCODING 4827
SWIDTH 960 0
DWIDTH 9 0
BBX 7 12 0 0
BITMAP
C6
C6
C6
C6
FE
FE
C6
C6
C6
06
06
06
ENDCHAR
STARTCHAR zE
ENCODING 4828
SWIDTH 960 0
DWIDTH 13 0
BBX 11 12 0 0
BITMAP
C600
C600
C600
C600
C600
FE00
FE00
C600
C600
C7C0
C660
C7C0
ENDCHAR
STARTCHAR z
ENCODING 4829
SWIDTH 960 0
DWIDTH 12 0
BBX 10 12 0 0
BITMAP
70C0
D8C0
D8C0
18C0
18C0
1FC0
1FC0
18C0
18C0
18C0
18C0
18C0
ENDCHAR
STARTCHAR zo
ENCODING 4830
SWIDTH 960 0
DWIDTH 9 0
BBX 7 12 0 0
BITMAP
C6
C6
C6
C6
FE
FE
C6
C6
C6
C0
C0
C0
ENDCHAR
STARTCHAR zWa
ENCODING 4831
SWIDTH 960 0
DWIDTH 12 0
BBX 10 14 0 -2
BITMAP
C600
C600
C600
C600
FE00
FE00
C600
C600
C600
0600
0600
0600
1F80
30C0
ENDCHAR
STARTCHAR Ze
ENCODING 4832
SWIDTH 960 0
DWIDTH 14 0
BBX 12 12 0 0
BITMAP
70E0
D9B0
D9B0
1980
1980
1F80
1F80
1980
1980
1980
1980
1980
ENDCHAR
STARTCHAR Zu
ENCODING 4833
SWIDTH 960 0
DWIDTH 15 0
BBX 13 12 0 0
BITMAP
70E0
D9B0
D9B0
1980
1980
1F80
1F80
19F8
1998
1998
1980
1980
ENDCHAR
STARTCHAR Zi
ENCODING 4834
SWIDTH 960 0
DWIDTH 15 0
BBX 13 12 0 0
BITMAP
70E0
D9B0
D9B0
1980
1980
1F80
1F80
1980
1980
1980
1998
19F8
ENDCHAR
STARTCHAR Za
ENCODING 4835
SWIDTH 960 0
DWIDTH 14 0
BBX 12 12 0 0
BITMAP
70E0
D9B0
D9B0
1980
1F80
1F80
1980
1980
1980
0180
0180
0180
ENDCHAR
STARTCHAR ZE
ENCODING 4836
SWIDTH 960 0
DWIDTH 15 0
BBX 13 12 0 0
BITMAP
70E0
D9B0
D9B0
1980
1980
1F80
1F80
1980
1980
19F0
1998
19F0
ENDCHAR
STARTCHAR Z
ENCODING 4837
SWIDTH 960 0
DWIDTH 15 0
BBX 13 13 0 0
BITMAP
C300
7E00
1800
3870
6CD8
6CD8
0CC0
0FC0
0FC0
0CC0
0CC0
0CC0
0CC0
ENDCHAR
STARTCHAR Zo
ENCODING 4838
SWIDTH 960 0
DWIDTH 14 0
BBX 12 12 0 0
BITMAP
70E0
D9B0
D9B0
1980
1F80
1F80
1980
1980
1980
1800
1800
1800
ENDCHAR
STARTCHAR ZWa
ENCODING 4839
SWIDTH 960 0
DWIDTH 14 0
BBX 12 14 0 -2
BITMAP
70E0
D9B0
D9B0
1980
1F80
1F80
1980
1980
1980
0180
0180
0180
07E0
0C30
ENDCHAR
STARTCHAR ye
ENCODING 4840
SWIDTH 960 0
DWIDTH 9 0
BBX 7 12 0 0
BITMAP
38
6C
C6
C6
C6
C6
EC
78
30
30
30
30
ENDCHAR
STARTCHAR yu
ENCODING 4841
SWIDTH 960 0
DWIDTH 10 0
BBX 8 12 0 0
BITMAP
38
6C
C6
C6
C6
C6
EC
78
30
3F
33
30
ENDCHAR
STARTCHAR yi
ENCODING 4842
SWIDTH 960 0
DWIDTH 12 0
BBX 10 12 0 0
BITMAP
3800
6C00
C600
C600
C600
C600
EC00
7800
3300
3FC0
30C0
3000
ENDCHAR
STARTCHAR ya
ENCODING 4843
SWIDTH 960 0
DWIDTH 9 0
BBX 7 12 0 0
BITMAP
38
6C
C6
C6
C6
CC
F8
70
38
0C
38
70
ENDCHAR
STARTCHAR yE
ENCODING 4844
SWIDTH 960 0
DWIDTH 12 0
BBX 10 12 0 0
BITMAP
3800
6C00
C600
C600
C600
C600
EC00
7800
3780
3CC0
3780
3000
ENDCHAR
STARTCHAR y
ENCODING 4845
SWIDTH 960 0
DWIDTH 13 0
BBX 11 12 0 0
BITMAP
0F00
1980
3180
3180
3180
1B00
1E60
0E60
07C0
7C00
E000
C000
ENDCHAR
STARTCHAR yo
ENCODING 4846
SWIDTH 960 0
DWIDTH 13 0
BBX 11 12 0 0
BITMAP
3800
6C00
C600
C7E0
C660
C600
EC00
7800
3000
3000
3000
3000
ENDCHAR
STARTCHAR yWa
ENCODING 4847
SWIDTH 960 0
DWIDTH 11 0
BBX 9 15 0 0
BITMAP
E380
7F00
1C00
1C00
3600
6300
6300
6300
6300
7600
3C00
1800
1800
1800
1800
ENDCHAR
STARTCHAR de
ENCODING 4848
SWIDTH 960 0
DWIDTH 12 0
BBX 10 12 0 0
BITMAP
1C00
3E00
6200
6200
6600
7C00
3000
1800
1800
0C00
FFC0
C0C0
ENDCHAR
STARTCHAR du
ENCODING 4849
SWIDTH 960 0
DWIDTH 14 0
BBX 12 12 0 0
BITMAP
1C00
3E00
6200
6600
7C00
3000
1800
7F00
C300
C3F0
0630
0600
ENDCHAR
STARTCHAR di
ENCODING 4850
SWIDTH 960 0
DWIDTH 13 0
BBX 11 12 0 0
BITMAP
1C00
3E00
6200
6600
7C00
3000
1800
7F00
C300
C300
0660
07E0
ENDCHAR
STARTCHAR da
ENCODING 4851
SWIDTH 960 0
DWIDTH 10 0
BBX 8 12 0 0
BITMAP
1C
3E
62
66
7C
30
18
FF
C3
C3
03
03
ENDCHAR
STARTCHAR dE
ENCODING 4852
SWIDTH 960 0
DWIDTH 13 0
BBX 11 12 0 0
BITMAP
1C00
3E00
6200
6200
6600
7C00
3000
1800
1800
0FC0
FE60
C3C0
ENDCHAR
STARTCHAR d
ENCODING 4853
SWIDTH 960 0
DWIDTH 13 0
BBX 11 12 0 0
BITMAP
1C00
3E00
63E0
6260
6600
7C00
3000
1800
1800
0C00
FFC0
C0C0
ENDCHAR
STARTCHAR do
ENCODING 4854
SWIDTH 960 0
DWIDTH 11 0
BBX 9 12 0 0
BITMAP
0E00
1F00
3100
3300
3E00
1C00
3F80
6180
C000
C000
C000
C000
ENDCHAR
STARTCHAR dWa
ENCODING 4855
SWIDTH 960 0
DWIDTH 13 0
BBX 11 14 0 -2
BITMAP
1C00
3E00
6200
6600
7C00
3000
1800
FF00
C300
C300
0300
0300
0FC0
1860
ENDCHAR
STARTCHAR De
ENCODING 4856
SWIDTH 960 0
DWIDTH 10 0
BBX 8 12 0 0
BITMAP
10
10
38
7C
C4
CC
F8
60
30
18
FF
C3
ENDCHAR
STARTCHAR Du
ENCODING 4857
SWIDTH 960 0
DWIDTH 14 0
BBX 12 12 0 0
BITMAP
0800
0800
1C00
3E00
6200
6600
7C00
3000
7F00
C3F0
C630
0600
ENDCHAR
STARTCHAR Di
ENCODING 4858
SWIDTH 960 0
DWIDTH 13 0
BBX 11 12 0 0
BITMAP
0800
0800
1C00
3E00
6200
6600
7C00
3000
7F00
C300
C660
07E0
ENDCHAR
STARTCHAR Da
ENCODING 4859
SWIDTH 960 0
DWIDTH 10 0
BBX 8 12 0 0
BITMAP
08
08
1C
3E
62
66
7C
30
FF
C3
03
03
ENDCHAR
STARTCHAR DE
ENCODING 4860
SWIDTH 960 0
DWIDTH 13 0
BBX 11 12 0 0
BITMAP
1000
1000
3800
7C00
C400
CC00
F800
6000
3000
1BC0
FE60
C3C0
ENDCHAR
STARTCHAR D
ENCODING 4861
SWIDTH 960 0
DWIDTH 12 0
BBX 10 12 0 0
BITMAP
1000
1000
3800
7C00
C7C0
CCC0
F800
6000
3000
1800
FF00
C300
ENDCHAR
STARTCHAR Do
ENCODING 4862
SWIDTH 960 0
DWIDTH 12 0
BBX 10 12 0 0
BITMAP
0400
0400
0E00
1F00
3100
3300
3E00
1FC0
30C0
6000
6000
6000
ENDCHAR
STARTCHAR DWa
ENCODING 4863
SWIDTH 960 0
DWIDTH 13 0
BBX 11 16 0 -2
BITMAP
0800
0800
1C00
3E00
6200
6600
7C00
3000
1800
FF00
C300
C300
0300
0300
0FC0
1860
ENDCHAR
STARTCHAR je
ENCODING 4864
SWIDTH 960 0
DWIDTH 12 0
BBX 10 13 0 0
BITMAP
C0C0
7F80
0C00
1E00
3300
3100
3300
1E00
1800
1C00
0C00
7F80
6180
ENDCHAR
STARTCHAR ju
ENCODING 4865
SWIDTH 960 0
DWIDTH 15 0
BBX 13 13 0 0
BITMAP
C0C0
7F80
0C00
1E00
3300
3300
1E00
0C00
3F80
6180
61F8
0318
0300
ENDCHAR
STARTCHAR ji
ENCODING 4866
SWIDTH 960 0
DWIDTH 14 0
BBX 12 13 0 0
BITMAP
C0C0
7F80
0C00
1E00
3300
3300
1E00
0C00
3F80
6180
6180
0330
03F0
ENDCHAR
STARTCHAR ja
ENCODING 4867
SWIDTH 960 0
DWIDTH 12 0
BBX 10 13 0 0
BITMAP
C0C0
7F80
0C00
1E00
3300
3300
1E00
0C00
7F80
6180
6180
0180
0180
ENDCHAR
STARTCHAR jE
ENCODING 4868
SWIDTH 960 0
DWIDTH 14 0
BBX 12 13 0 0
BITMAP
C0C0
7F80
0C00
1E00
3300
3100
3300
1E00
1800
1C00
0FE0
7F30
61E0
ENDCHAR
STARTCHAR j
ENCODING 4869
SWIDTH 960 0
DWIDTH 14 0
BBX 12 13 0 0
BITMAP
C0C0
7F80
0C00
1E00
3300
31F0
3330
1E00
1800
1C00
0C00
7F80
6180
ENDCHAR
STARTCHAR jo
ENCODING 4870
SWIDTH 960 0
DWIDTH 12 0
BBX 10 13 0 0
BITMAP
C0C0
7F80
0C00
1E00
3300
3300
1E00
1FC0
30C0
6000
6000
6000
6000
ENDCHAR
STARTCHAR jWa
ENCODING 4871
SWIDTH 960 0
DWIDTH 15 0
BBX 13 15 0 -2
BITMAP
C0C0
7F80
0C00
1E00
3300
3300
1E00
0C00
7F80
6180
6180
0180
0180
0FF0
1C38
ENDCHAR
STARTCHAR ge
ENCODING 4872
SWIDTH 960 0
DWIDTH 9 0
BBX 7 11 0 0
BITMAP
7C
C6
C6
06
06
06
0C
0C
0C
0C
0C
ENDCHAR
STARTCHAR gu
ENCODING 4873
SWIDTH 960 0
DWIDTH 13 0
BBX 11 11 0 0
BITMAP
7C00
C600
C600
0600
0600
0600
0FE0
0C60
0C00
0C00
0C00
ENDCHAR
STARTCHAR gi
ENCODING 4874
SWIDTH 960 0
DWIDTH 12 0
BBX 10 11 0 0
BITMAP
7C00
C600
C600
0600
0600
0600
0C00
0C00
0C00
0CC0
0FC0
ENDCHAR
STARTCHAR ga
ENCODING 4875
SWIDTH 960 0
DWIDTH 9 0
BBX 7 11 0 0
BITMAP
78
FE
C6
06
06
06
0C
1C
78
E0
C0
ENDCHAR
STARTCHAR gE
ENCODING 4876
SWIDTH 960 0
DWIDTH 12 0
BBX 10 11 0 0
BITMAP
7C00
C600
C600
0600
0600
0600
0C00
0C00
0F80
0CC0
0F80
ENDCHAR
STARTCHAR g
ENCODING 4877
SWIDTH 960 0
DWIDTH 11 0
BBX 9 11 0 0
BITMAP
7F00
CD80
7980
0180
0180
0300
0300
0300
0300
0300
0300
ENDCHAR
STARTCHAR go
ENCODING 4878
SWIDTH 960 0
DWIDTH 9 0
BBX 7 12 0 0
BITMAP
10
10
10
7C
C6
C6
06
04
0C
0C
0C
0C
ENDCHAR
STARTCHAR gWe
ENCODING 4880
SWIDTH 960 0
DWIDTH 14 0
BBX 12 11 0 0
BITMAP
7C00
C600
C600
0600
0600
07E0
0EB0
0CE0
0C00
0C00
0C00
ENDCHAR
STARTCHAR gWi
ENCODING 4882
SWIDTH 960 0
DWIDTH 13 0
BBX 11 11 0 0
BITMAP
7C00
C600
C600
0600
06C0
06C0
0FC0
0C60
0C60
0C00
0C00
ENDCHAR
STARTCHAR gWa
ENCODING 4883
SWIDTH 960 0
DWIDTH 9 0
BBX 7 11 0 0
BITMAP
78
CC
CC
0C
7E
66
06
06
06
06
06
ENDCHAR
STARTCHAR gWE
ENCODING 4884
SWIDTH 960 0
DWIDTH 12 0
BBX 10 13 0 -2
BITMAP
7C00
C600
C600
0600
0600
0600
0C00
0C00
0C00
0F80
0CC0
3F80
6000
ENDCHAR
STARTCHAR gWu/gW
ENCODING 4885
SWIDTH 960 0
DWIDTH 14 0
BBX 12 11 0 0
BITMAP
7C00
C6C0
C6C0
07F0
0630
0600
0E00
0C00
0C00
0C00
0C00
ENDCHAR
STARTCHAR Ge
ENCODING 4888
SWIDTH 960 0
DWIDTH 10 0
BBX 8 12 0 0
BITMAP
C3
7E
00
7C
C6
C6
06
04
0C
0C
0C
0C
ENDCHAR
STARTCHAR Gu
ENCODING 4889
SWIDTH 960 0
DWIDTH 13 0
BBX 11 12 0 0
BITMAP
C300
7E00
0000
7C00
C600
C600
0600
0600
0FE0
0C60
0C00
0C00
ENDCHAR
STARTCHAR Gi
ENCODING 4890
SWIDTH 960 0
DWIDTH 12 0
BBX 10 12 0 0
BITMAP
C300
7E00
0000
7C00
C600
C600
0600
0400
0C00
0C00
0CC0
0FC0
ENDCHAR
STARTCHAR Ga
ENCODING 4891
SWIDTH 960 0
DWIDTH 10 0
BBX 8 12 0 0
BITMAP
C3
7E
00
3C
7F
43
03
03
0E
3C
70
E0
ENDCHAR
STARTCHAR GE
ENCODING 4892
SWIDTH 960 0
DWIDTH 12 0
BBX 10 12 0 0
BITMAP
C300
7E00
0000
7C00
C600
C600
0600
0400
0C00
0F80
0CC0
0F80
ENDCHAR
STARTCHAR G
ENCODING 4893
SWIDTH 960 0
DWIDTH 11 0
BBX 9 12 0 0
BITMAP
C300
7E00
0000
7F00
CD80
7980
0180
0100
0300
0300
0300
0300
ENDCHAR
STARTCHAR Go
ENCODING 4894
SWIDTH 960 0
DWIDTH 9 0
BBX 7 12 0 0
BITMAP
C6
7C
10
7C
C6
C6
06
04
0C
0C
0C
0C
ENDCHAR
STARTCHAR GWa
ENCODING 4895
SWIDTH 960 0
DWIDTH 10 0
BBX 8 14 0 0
BITMAP
C3
7E
00
78
CC
CC
0C
7E
66
06
06
06
06
06
ENDCHAR
STARTCHAR Te
ENCODING 4896
SWIDTH 960 0
DWIDTH 11 0
BBX 9 10 0 0
BITMAP
3E00
6B00
6B00
C980
C980
C980
C980
C980
C980
C980
ENDCHAR
STARTCHAR Tu
ENCODING 4897
SWIDTH 960 0
DWIDTH 15 0
BBX 13 10 0 0
BITMAP
3E00
6B00
6B00
C980
C980
C9F8
C998
C980
C980
C980
ENDCHAR
STARTCHAR Ti
ENCODING 4898
SWIDTH 960 0
DWIDTH 15 0
BBX 13 10 0 0
BITMAP
3E00
6B00
6B00
C980
C980
C980
C980
C980
C998
C9F8
ENDCHAR
STARTCHAR Ta
ENCODING 4899
SWIDTH 960 0
DWIDTH 11 0
BBX 9 11 0 0
BITMAP
3E00
6B00
6B00
C980
C980
C980
C980
0180
0180
0180
0180
ENDCHAR
STARTCHAR TE
ENCODING 4900
SWIDTH 960 0
DWIDTH 15 0
BBX 13 11 0 0
BITMAP
3E00
6B00
6B00
C980
C980
C980
C980
C980
C9F0
C998
C9F0
ENDCHAR
STARTCHAR T
ENCODING 4901
SWIDTH 960 0
DWIDTH 13 0
BBX 11 11 0 0
BITMAP
3F80
7FC0
4CC0
CC60
CE60
C660
0600
0600
0600
0600
0600
ENDCHAR
STARTCHAR To
ENCODING 4902
SWIDTH 960 0
DWIDTH 11 0
BBX 9 11 0 0
BITMAP
3E00
6B00
6B00
C980
C980
C980
C980
C000
C000
C000
C000
ENDCHAR
STARTCHAR TWa
ENCODING 4903
SWIDTH 960 0
DWIDTH 14 0
BBX 12 13 0 -2
BITMAP
3E00
6B00
6B00
C980
C980
C980
C980
0180
0180
0180
0180
07E0
0C30
ENDCHAR
STARTCHAR Ce
ENCODING 4904
SWIDTH 960 0
DWIDTH 17 0
BBX 15 10 0 0
BITMAP
1F80
3FC0
6260
C230
C230
C230
F338
DAB6
CAB2
FBBE
ENDCHAR
STARTCHAR Cu
ENCODING 4905
SWIDTH 960 0
DWIDTH 18 0
BBX 16 10 0 0
BITMAP
1F80
3FC0
6260
C230
C23F
C233
F338
DAB4
CAB2
FBBE
ENDCHAR
STARTCHAR Ci
ENCODING 4906
SWIDTH 960 0
DWIDTH 18 0
BBX 16 10 0 0
BITMAP
1F80
3FC0
6260
C230
C230
C230
F330
DAB0
CAB3
FBBF
ENDCHAR
STARTCHAR Ca
ENCODING 4907
SWIDTH 960 0
DWIDTH 16 0
BBX 14 12 0 0
BITMAP
1FC0
3FE0
6230
C230
E330
D2B0
CAB0
FBB0
0030
0068
0064
007C
ENDCHAR
STARTCHAR CE
ENCODING 4908
SWIDTH 960 0
DWIDTH 18 0
BBX 16 10 0 0
BITMAP
1F80
3FC0
6260
C23F
C239
C237
F330
DABC
CAB2
FBBE
ENDCHAR
STARTCHAR C
ENCODING 4909
SWIDTH 960 0
DWIDTH 16 0
BBX 14 11 0 0
BITMAP
1FC0
7FE0
C630
E638
9724
F33C
0300
0380
0340
0320
03E0
ENDCHAR
STARTCHAR Co
ENCODING 4910
SWIDTH 960 0
DWIDTH 16 0
BBX 14 12 0 0
BITMAP
1FC0
3FE0
3430
6430
4630
C528
C4A4
C738
E000
D000
C800
F800
ENDCHAR
STARTCHAR CWa
ENCODING 4911
SWIDTH 960 0
DWIDTH 16 0
BBX 14 13 0 -2
BITMAP
1FC0
3FE0
6230
C230
E330
D2B0
CAB0
FBB0
0030
0060
0060
01F8
030C
ENDCHAR
STARTCHAR Pe
ENCODING 4912
SWIDTH 960 0
DWIDTH 10 0
BBX 8 12 0 0
BITMAP
18
18
18
3C
66
66
3C
7E
E7
C3
C3
C3
ENDCHAR
STARTCHAR Pu
ENCODING 4913
SWIDTH 960 0
DWIDTH 14 0
BBX 12 12 0 0
BITMAP
1800
1800
1800
3C00
6600
6600
3C00
7E00
E700
C3F0
C330
C300
ENDCHAR
STARTCHAR Pi
ENCODING 4914
SWIDTH 960 0
DWIDTH 14 0
BBX 12 12 0 0
BITMAP
1800
1800
1800
3C00
6600
6600
3C00
7E00
E700
C300
C330
C3F0
ENDCHAR
STARTCHAR Pa
ENCODING 4915
SWIDTH 960 0
DWIDTH 10 0
BBX 8 12 0 0
BITMAP
18
18
18
3C
66
3C
7E
E7
C7
C3
03
03
ENDCHAR
STARTCHAR PE
ENCODING 4916
SWIDTH 960 0
DWIDTH 14 0
BBX 12 12 0 0
BITMAP
1800
1800
1800
3C00
6600
6600
3C00
7E00
E700
C3E0
C330
C3E0
ENDCHAR
STARTCHAR P
ENCODING 4917
SWIDTH 960 0
DWIDTH 13 0
BBX 11 12 0 0
BITMAP
1800
1800
1800
3C00
67E0
6660
3C00
7E00
E700
C300
C300
C300
ENDCHAR
STARTCHAR Po
ENCODING 4918
SWIDTH 960 0
DWIDTH 10 0
BBX 8 12 0 0
BITMAP
18
18
18
3C
66
3C
7E
E7
C3
C3
C0
C0
ENDCHAR
STARTCHAR PWa
ENCODING 4919
SWIDTH 960 0
DWIDTH 13 0
BBX 11 14 0 -2
BITMAP
1800
1800
1800
3C00
6600
3C00
7E00
E700
C300
C300
0300
0300
0FC0
1860
ENDCHAR
STARTCHAR Se
ENCODING 4920
SWIDTH 960 0
DWIDTH 10 0
BBX 8 10 0 0
BITMAP
18
3C
66
66
3C
7E
E7
C3
C3
C3
ENDCHAR
STARTCHAR Su
ENCODING 4921
SWIDTH 960 0
DWIDTH 14 0
BBX 12 10 0 0
BITMAP
1800
3C00
6600
6600
3C00
7E00
E700
C3F0
C330
C300
ENDCHAR
STARTCHAR Si
ENCODING 4922
SWIDTH 960 0
DWIDTH 14 0
BBX 12 10 0 0
BITMAP
1800
3C00
6600
6600
3C00
7E00
E700
C300
C330
C3F0
ENDCHAR
STARTCHAR Sa
ENCODING 4923
SWIDTH 960 0
DWIDTH 10 0
BBX 8 11 0 0
BITMAP
18
3C
66
66
3C
7E
E6
C7
C3
03
03
ENDCHAR
STARTCHAR SE
ENCODING 4924
SWIDTH 960 0
DWIDTH 13 0
BBX 11 10 0 0
BITMAP
1800
3C00
6600
6600
3C00
7E00
E700
C3C0
C360
C3C0
ENDCHAR
STARTCHAR S
ENCODING 4925
SWIDTH 960 0
DWIDTH 13 0
BBX 11 10 0 0
BITMAP
1800
3C00
67E0
6660
3C00
7E00
E700
C300
C300
C300
ENDCHAR
STARTCHAR So
ENCODING 4926
SWIDTH 960 0
DWIDTH 10 0
BBX 8 11 0 0
BITMAP
18
3C
66
66
3C
7E
E7
C3
C3
C0
C0
ENDCHAR
STARTCHAR SWa
ENCODING 4927
SWIDTH 960 0
DWIDTH 13 0
BBX 11 13 0 -2
BITMAP
1800
3C00
6600
6600
3C00
7E00
E600
C700
C300
0300
0300
0FC0
1860
ENDCHAR
STARTCHAR `Se/S2e
ENCODING 4928
SWIDTH 960 0
DWIDTH 10 0
BBX 8 11 0 0
BITMAP
1E
63
C3
C3
C3
FF
C3
C3
C3
7F
60
ENDCHAR
STARTCHAR `Su/S2u
ENCODING 4929
SWIDTH 960 0
DWIDTH 14 0
BBX 12 11 0 0
BITMAP
1E00
6300
C300
C300
C300
FF00
C3F0
C330
C300
7F00
6000
ENDCHAR
STARTCHAR `Si/S2i
ENCODING 4930
SWIDTH 960 0
DWIDTH 13 0
BBX 11 12 0 0
BITMAP
7E00
C300
C300
FF00
C300
C300
7F00
0300
0300
0300
0330
03F0
ENDCHAR
STARTCHAR `Sa/S2a
ENCODING 4931
SWIDTH 960 0
DWIDTH 10 0
BBX 8 12 0 0
BITMAP
7E
C3
C3
FF
C3
C3
7F
03
03
03
03
03
ENDCHAR
STARTCHAR `SE/S2E
ENCODING 4932
SWIDTH 960 0
DWIDTH 14 0
BBX 12 12 0 0
BITMAP
7E00
C300
C300
FF00
C300
C300
7F00
0300
0300
03E0
0330
03E0
ENDCHAR
STARTCHAR `S/S2
ENCODING 4933
SWIDTH 960 0
DWIDTH 10 0
BBX 8 13 0 0
BITMAP
18
18
18
7E
E3
C3
C3
FF
C3
C3
C3
7F
60
ENDCHAR
STARTCHAR `So/S2o
ENCODING 4934
SWIDTH 960 0
DWIDTH 10 0
BBX 8 12 0 0
BITMAP
3C
66
C3
FF
C3
E7
7E
3C
70
C0
C0
C0
ENDCHAR
STARTCHAR fe
ENCODING 4936
SWIDTH 960 0
DWIDTH 12 0
BBX 10 11 0 0
BITMAP
0600
0200
0600
0C00
1800
3000
7800
CC00
C440
7FC0
1F40
ENDCHAR
STARTCHAR fu
ENCODING 4937
SWIDTH 960 0
DWIDTH 11 0
BBX 9 12 0 0
BITMAP
0400
0C00
1800
3000
6000
F800
C880
CF80
FE00
1800
3000
3000
ENDCHAR
STARTCHAR fi
ENCODING 4938
SWIDTH 960 0
DWIDTH 12 0
BBX 10 11 0 0
BITMAP
0600
0200
0600
0C00
1800
3000
78C0
CC40
C4C0
7F80
3E00
ENDCHAR
STARTCHAR fa
ENCODING 4939
SWIDTH 960 0
DWIDTH 12 0
BBX 10 12 0 0
BITMAP
0800
0C00
1800
1000
3000
7000
D800
CC80
7FC0
0C40
0C00
0C00
ENDCHAR
STARTCHAR fE
ENCODING 4940
SWIDTH 960 0
DWIDTH 13 0
BBX 11 12 0 0
BITMAP
0600
0200
0600
0C00
1800
3000
7800
CC00
C4C0
7FA0
1F20
01C0
ENDCHAR
STARTCHAR f
ENCODING 4941
SWIDTH 960 0
DWIDTH 10 0
BBX 8 12 0 0
BITMAP
3E
67
43
C0
C0
F8
CF
DD
6C
0C
0C
0C
ENDCHAR
STARTCHAR fo
ENCODING 4942
SWIDTH 960 0
DWIDTH 12 0
BBX 10 11 0 0
BITMAP
1F80
3E40
63C0
C000
C000
C000
F000
E800
C4C0
6D80
3F80
ENDCHAR
STARTCHAR fWa
ENCODING 4943
SWIDTH 960 0
DWIDTH 12 0
BBX 10 13 0 -2
BITMAP
0800
0C00
1800
1000
3000
7000
D800
CC80
7FC0
0C40
0C00
3F00
6180
ENDCHAR
STARTCHAR pe
ENCODING 4944
SWIDTH 960 0
DWIDTH 12 0
BBX 10 12 0 0
BITMAP
6180
7F80
FFC0
CCC0
0C00
0C00
0C00
0C00
0C00
0C00
0C00
0C00
ENDCHAR
STARTCHAR pu
ENCODING 4945
SWIDTH 960 0
DWIDTH 12 0
BBX 10 12 0 0
BITMAP
6180
7F80
FFC0
CCC0
0C00
0C00
0C00
0FC0
0CC0
0C00
0C00
0C00
ENDCHAR
STARTCHAR pi
ENCODING 4946
SWIDTH 960 0
DWIDTH 12 0
BBX 10 12 0 0
BITMAP
6180
7F80
FFC0
CCC0
0C00
0C00
0C00
0C00
0C00
0C00
0CC0
0FC0
ENDCHAR
STARTCHAR pa
ENCODING 4947
SWIDTH 960 0
DWIDTH 12 0
BBX 10 12 0 0
BITMAP
6180
7F80
FFC0
CCC0
0C00
0C00
0C00
0C00
1800
3000
6000
4000
ENDCHAR
STARTCHAR pE
ENCODING 4948
SWIDTH 960 0
DWIDTH 12 0
BBX 10 12 0 0
BITMAP
6180
7F80
FFC0
CCC0
0C00
0C00
0C00
0C00
0C00
0F80
0CC0
0F80
ENDCHAR
STARTCHAR p
ENCODING 4949
SWIDTH 960 0
DWIDTH 12 0
BBX 10 12 0 0
BITMAP
6180
7F80
FFC0
CCC0
0C00
0F00
0300
0300
0300
0300
0300
0300
ENDCHAR
STARTCHAR po
ENCODING 4950
SWIDTH 960 0
DWIDTH 12 0
BBX 10 12 0 0
BITMAP
6180
7F80
FFC0
CCC0
0C00
0C00
1800
1800
3000
3000
3000
3000
ENDCHAR
STARTCHAR pWa
ENCODING 4951
SWIDTH 960 0
DWIDTH 12 0
BBX 10 14 0 -2
BITMAP
6180
7F80
FFC0
CCC0
0C00
0C00
0C00
0C00
0C00
0C00
0C00
0C00
7F80
E1C0
ENDCHAR
STARTCHAR mYa
ENCODING 4952
SWIDTH 960 0
DWIDTH 14 0
BBX 12 15 2 -1
BITMAP
7070
1FC0
0700
3FF0
7FF0
C510
8510
8A10
FBF0
71F0
0020
0020
0040
0040
0040
ENDCHAR
STARTCHAR rYa
ENCODING 4953
SWIDTH 960 0
DWIDTH 12 0
BBX 10 14 3 0
BITMAP
C0C0
7F80
0C00
0C00
0C00
1800
3800
7000
E000
C300
C380
E180
7F00
3E00
ENDCHAR
STARTCHAR fYa
ENCODING 4954
SWIDTH 960 0
DWIDTH 13 0
BBX 11 13 2 0
BITMAP
6060
3FC0
0600
0200
0600
0C00
1800
3000
78C0
CC40
C4C0
7F80
3E00
ENDCHAR
STARTCHAR Space
ENCODING 4960
SWIDTH 960 0
DWIDTH 2 0
BBX 0 0 0 0
BITMAP
ENDCHAR
STARTCHAR Ethiopic-Wordspace
ENCODING 4961
SWIDTH 960 0
DWIDTH 4 0
BBX 2 6 2 2
BITMAP
C0
C0
00
00
C0
C0
ENDCHAR
STARTCHAR Ethiopic-Full-Stop
ENCODING 4962
SWIDTH 960 0
DWIDTH 8 0
BBX 6 6 0 2
BITMAP
CC
CC
00
00
CC
CC
ENDCHAR
STARTCHAR Ethiopic-Comma
ENCODING 4963
SWIDTH 960 0
DWIDTH 8 0
BBX 6 7 0 2
BITMAP
FC
00
30
30
00
30
30
ENDCHAR
STARTCHAR Ethiopic-Semicolon
ENCODING 4964
SWIDTH 960 0
DWIDTH 8 0
BBX 6 9 0 1
BITMAP
FC
00
30
30
00
30
30
00
FC
ENDCHAR
STARTCHAR Ethiopic-Colon
ENCODING 4965
SWIDTH 960 0
DWIDTH 8 0
BBX 6 7 0 2
BITMAP
30
30
00
FC
00
30
30
ENDCHAR
STARTCHAR Ethiopic-Preface-Colon
ENCODING 4966
SWIDTH 960 0
DWIDTH 8 0
BBX 6 7 0 2
BITMAP
C0
C0
00
7C
00
C0
C0
ENDCHAR
STARTCHAR Ethiopic-Question-Mark
ENCODING 4967
SWIDTH 960 0
DWIDTH 4 0
BBX 2 10 0 1
BITMAP
C0
C0
00
00
C0
C0
00
00
C0
C0
ENDCHAR
STARTCHAR Ethiopic-End-Paragraph
ENCODING 4968
SWIDTH 960 0
DWIDTH 10 0
BBX 8 9 0 1
BITMAP
18
18
C3
DB
18
C3
C3
18
18
ENDCHAR
STARTCHAR Ethiopic-1
ENCODING 4969
SWIDTH 960 0
DWIDTH 11 0
BBX 9 13 0 -1
BITMAP
C180
7F00
0000
0C00
0C00
1800
3E00
6300
6300
3E00
0000
7F00
C180
ENDCHAR
STARTCHAR Ethiopic-2
ENCODING 4970
SWIDTH 960 0
DWIDTH 11 0
BBX 9 13 0 -1
BITMAP
C180
7F00
0000
1C00
3600
6600
7C00
6000
7C00
3600
1C00
7F00
C180
ENDCHAR
STARTCHAR Ethiopic-3
ENCODING 4971
SWIDTH 960 0
DWIDTH 10 0
BBX 8 12 0 -1
BITMAP
C3
7E
00
7E
66
60
60
60
60
00
7E
C3
ENDCHAR
STARTCHAR Ethiopic-4
ENCODING 4972
SWIDTH 960 0
DWIDTH 10 0
BBX 8 12 0 -1
BITMAP
C3
7E
00
3C
66
66
66
66
3C
00
7E
C3
ENDCHAR
STARTCHAR Ethiopic-5
ENCODING 4973
SWIDTH 960 0
DWIDTH 11 0
BBX 9 13 0 -1
BITMAP
C180
7F00
0000
1800
1800
3F00
7300
6000
6300
3F00
0000
7F00
C180
ENDCHAR
STARTCHAR Ethiopic-6
ENCODING 4974
SWIDTH 960 0
DWIDTH 11 0
BBX 9 14 0 -1
BITMAP
C180
7F00
0000
3C00
7E00
6600
0600
0C00
0E00
1B00
1E00
0000
7F00
C180
ENDCHAR
STARTCHAR Ethiopic-7
ENCODING 4975
SWIDTH 960 0
DWIDTH 11 0
BBX 9 14 0 -1
BITMAP
C180
7F00
0000
3C00
7E00
6600
0600
0C00
0800
1900
1F00
0000
7F00
C180
ENDCHAR
STARTCHAR Ethiopic-8
ENCODING 4976
SWIDTH 960 0
DWIDTH 12 0
BBX 10 13 0 -1
BITMAP
C0C0
7F80
0000
7F80
6D80
0C00
0C00
0C00
7F80
6180
0000
7F80
C0C0
ENDCHAR
STARTCHAR Ethiopic-9
ENCODING 4977
SWIDTH 960 0
DWIDTH 10 0
BBX 8 13 0 -1
BITMAP
C3
7E
00
00
66
66
7E
66
64
38
00
7E
C3
ENDCHAR
STARTCHAR Ethiopic-10
ENCODING 4978
SWIDTH 960 0
DWIDTH 10 0
BBX 8 12 0 -1
BITMAP
C3
7E
00
18
18
18
18
18
18
00
7E
C3
ENDCHAR
STARTCHAR Ethiopic-20
ENCODING 4979
SWIDTH 960 0
DWIDTH 12 0
BBX 10 12 0 -1
BITMAP
C0C0
7F80
0000
3F00
2D00
0C00
1E00
3300
3300
0000
7F80
C0C0
ENDCHAR
STARTCHAR Ethiopic-30
ENCODING 4980
SWIDTH 960 0
DWIDTH 12 0
BBX 10 12 0 -1
BITMAP
C0C0
7F80
0000
2F00
6D80
6D80
6D80
6D80
3980
0000
7F80
C0C0
ENDCHAR
STARTCHAR Ethiopic-40
ENCODING 4981
SWIDTH 960 0
DWIDTH 12 0
BBX 10 13 0 -1
BITMAP
C0C0
7F80
0000
6D80
6D80
6D80
3F80
0180
0180
0180
0000
7F80
C0C0
ENDCHAR
STARTCHAR Ethiopic-50
ENCODING 4982
SWIDTH 960 0
DWIDTH 10 0
BBX 8 13 0 -1
BITMAP
C3
7E
00
3E
66
3E
06
0C
0C
0C
00
7E
C3
ENDCHAR
STARTCHAR Ethiopic-60
ENCODING 4983
SWIDTH 960 0
DWIDTH 12 0
BBX 10 13 0 -1
BITMAP
C0C0
7F80
0000
7F80
6D80
0C00
0E00
0600
7F80
6180
0000
7F80
C0C0
ENDCHAR
STARTCHAR Ethiopic-70
ENCODING 4984
SWIDTH 960 0
DWIDTH 10 0
BBX 8 12 0 -1
BITMAP
C3
7E
00
3E
6B
6E
60
66
3E
00
7E
C3
ENDCHAR
STARTCHAR Ethiopic-80
ENCODING 4985
SWIDTH 960 0
DWIDTH 13 0
BBX 11 12 0 -1
BITMAP
C060
7FC0
0000
7FC0
5B40
1B00
1B00
1B00
1B00
0000
7FC0
C060
ENDCHAR
STARTCHAR Ethiopic-90
ENCODING 4986
SWIDTH 960 0
DWIDTH 11 0
BBX 9 14 0 -1
BITMAP
C180
7F00
0000
3E00
3600
0C00
0E00
0600
0C00
0C00
0C00
0000
7F00
C180
ENDCHAR
STARTCHAR Ethiopic-100
ENCODING 4987
SWIDTH 960 0
DWIDTH 10 0
BBX 8 13 0 -1
BITMAP
C3
7E
00
3C
66
7C
60
30
30
30
00
7E
C3
ENDCHAR
STARTCHAR Ethiopic-10000
ENCODING 4988
SWIDTH 960 0
DWIDTH 14 0
BBX 12 13 0 -1
BITMAP
C030
7FE0
0000
79E0
CF30
FBE0
C300
6180
6180
6180
0000
7FE0
C030
ENDCHAR
STARTCHAR `qe/q2e
ENCODING 4992
SWIDTH 960 0
DWIDTH 12 0
BBX 10 14 0 0
BITMAP
7380
3300
1E00
0C00
0C00
3F80
6CC0
CCC0
CD80
7E00
0C00
0C00
0C00
0C00
ENDCHAR
STARTCHAR `qu/q2u
ENCODING 4993
SWIDTH 960 0
DWIDTH 12 0
BBX 10 14 0 0
BITMAP
7380
3300
1E00
0C00
0C00
1F80
6CC0
CCC0
CD80
7E00
0C00
0FC0
0CC0
0C00
ENDCHAR
STARTCHAR `qi/q2i
ENCODING 4994
SWIDTH 960 0
DWIDTH 12 0
BBX 10 14 0 0
BITMAP
7380
3300
1E00
0C00
0C00
1F80
6CC0
CCC0
CD80
7E00
0C00
0C00
0CC0
0FC0
ENDCHAR
STARTCHAR `qa/q2a
ENCODING 4995
SWIDTH 960 0
DWIDTH 12 0
BBX 10 14 0 0
BITMAP
7380
3300
1E00
0C00
0C00
1F80
6CC0
CCC0
CD80
7E00
0C00
1800
3000
6000
ENDCHAR
STARTCHAR `qE/q2E
ENCODING 4996
SWIDTH 960 0
DWIDTH 12 0
BBX 10 14 0 0
BITMAP
7380
3300
1E00
0C00
0C00
1F80
6CC0
CCC0
CD80
7E00
0C00
0F80
0CC0
0F80
ENDCHAR
STARTCHAR `q/q2
ENCODING 4997
SWIDTH 960 0
DWIDTH 13 0
BBX 11 14 0 0
BITMAP
E700
6600
3C00
1800
1E00
0600
0FC0
3660
6660
66C0
3F00
0600
0600
0600
ENDCHAR
STARTCHAR `qo/q2o
ENCODING 4998
SWIDTH 960 0
DWIDTH 12 0
BBX 10 14 0 0
BITMAP
39C0
1980
0F00
0900
0B00
0C00
1F80
6CC0
CCC0
CD80
7E00
0C00
0C00
0C00
ENDCHAR
STARTCHAR mWe
ENCODING 5000
SWIDTH 960 0
DWIDTH 19 0
BBX 17 8 0 2
BITMAP
3FF000
7FF000
449000
C59F00
8D1580
993700
F1E000
F1C000
ENDCHAR
STARTCHAR bWe
ENCODING 5001
SWIDTH 960 0
DWIDTH 15 0
BBX 13 11 0 0
BITMAP
3800
7C00
C600
C600
C600
C7F0
C658
C670
C600
C600
C600
ENDCHAR
STARTCHAR GWe
ENCODING 5002
SWIDTH 960 0
DWIDTH 14 0
BBX 12 14 0 0
BITMAP
C300
7E00
0000
7C00
C600
C600
0600
0600
07E0
0EB0
0CE0
0C00
0C00
0C00
ENDCHAR
STARTCHAR fWe
ENCODING 5003
SWIDTH 960 0
DWIDTH 14 0
BBX 12 11 0 0
BITMAP
0600
0200
0600
0FE0
18B0
30E0
7800
CC00
C440
7FC0
1F40
ENDCHAR
STARTCHAR pWe
ENCODING 5004
SWIDTH 960 0
DWIDTH 14 0
BBX 12 12 0 0
BITMAP
6180
7F80
FFC0
CCC0
0C00
0C00
0FE0
0CB0
0CE0
0C00
0C00
0C00
ENDCHAR
STARTCHAR `ke/k2e
ENCODING 5008
SWIDTH 960 0
DWIDTH 13 0
BBX 11 13 0 0
BITMAP
0440
0C60
C6C0
CF80
FF00
F180
3180
3180
3180
3180
3180
3180
3180
ENDCHAR
STARTCHAR `ku/k2u
ENCODING 5009
SWIDTH 960 0
DWIDTH 15 0
BBX 13 13 0 0
BITMAP
0440
0C60
C6C0
CF80
FF00
F180
3180
3180
31F8
3198
3180
3180
3180
ENDCHAR
STARTCHAR `ki/k2i
ENCODING 5010
SWIDTH 960 0
DWIDTH 15 0
BBX 13 13 0 0
BITMAP
0440
0C60
C6C0
CF80
FF00
F180
3180
3180
3180
3180
3180
3198
31F8
ENDCHAR
STARTCHAR `ka/k2a
ENCODING 5011
SWIDTH 960 0
DWIDTH 13 0
BBX 11 13 0 0
BITMAP
0440
0C60
C6C0
CF80
FF00
F180
3180
3180
3180
3180
0180
0180
0180
ENDCHAR
STARTCHAR `kE/k2E
ENCODING 5012
SWIDTH 960 0
DWIDTH 15 0
BBX 13 13 0 0
BITMAP
0440
0C60
C6C0
CF80
FF00
F180
3180
3180
3180
3180
31F0
3198
31F0
ENDCHAR
STARTCHAR `k/k2
ENCODING 5013
SWIDTH 960 0
DWIDTH 13 0
BBX 11 13 0 0
BITMAP
0440
0C60
C6C0
CF80
DF00
F180
6180
7180
3180
3180
3180
3180
3180
ENDCHAR
STARTCHAR `ko/k2o
ENCODING 5014
SWIDTH 960 0
DWIDTH 13 0
BBX 11 13 0 0
BITMAP
0440
0C60
C6C0
CF80
FF00
F180
3180
3180
3180
3180
3000
3000
3000
ENDCHAR
STARTCHAR mWi
ENCODING 5016
SWIDTH 960 0
DWIDTH 18 0
BBX 16 12 0 0
BITMAP
7FC0
7FEC
CA2C
8A3C
8A27
8BE3
F9C0
7800
0800
1800
3000
6000
ENDCHAR
STARTCHAR bWi
ENCODING 5017
SWIDTH 960 0
DWIDTH 15 0
BBX 13 11 0 0
BITMAP
3800
7C00
C660
C660
C7E0
C638
C618
C600
C600
C600
C600
ENDCHAR
STARTCHAR GWi
ENCODING 5018
SWIDTH 960 0
DWIDTH 14 0
BBX 12 14 0 0
BITMAP
C300
7E00
0000
7C00
C600
C600
0600
06C0
06C0
0FC0
0C70
0C30
0C00
0C00
ENDCHAR
STARTCHAR fWi
ENCODING 5019
SWIDTH 960 0
DWIDTH 14 0
BBX 12 11 0 0
BITMAP
0600
02C0
06C0
0FC0
1870
3030
7800
CC00
C440
7FC0
1F40
ENDCHAR
STARTCHAR pWi
ENCODING 5020
SWIDTH 960 0
DWIDTH 13 0
BBX 11 12 0 0
BITMAP
6180
7F80
FFC0
CCC0
0C00
0CC0
0CC0
0FC0
0C60
0C60
0C00
0C00
ENDCHAR
STARTCHAR Xe
ENCODING 5024
SWIDTH 960 0
DWIDTH 14 0
BBX 12 14 0 0
BITMAP
7380
3300
1E00
EDC0
7F80
0C00
0DE0
0FF0
0630
0630
0630
0630
0630
0630
ENDCHAR
STARTCHAR Xu
ENCODING 5025
SWIDTH 960 0
DWIDTH 18 0
BBX 16 14 0 0
BITMAP
7380
3300
1E00
EDC0
7F80
0C00
0DE0
0FF0
063F
0633
0630
0630
0630
0630
ENDCHAR
STARTCHAR Xi
ENCODING 5026
SWIDTH 960 0
DWIDTH 18 0
BBX 16 14 0 0
BITMAP
7380
3300
1E00
EDC0
7F80
0C00
0DE0
0FF0
0630
0630
0630
0630
0633
063F
ENDCHAR
STARTCHAR Xa
ENCODING 5027
SWIDTH 960 0
DWIDTH 14 0
BBX 12 14 0 0
BITMAP
7380
3300
1E00
EDC0
7F80
0C00
0DE0
0FF0
0630
0630
0630
0630
0030
0030
ENDCHAR
STARTCHAR XE
ENCODING 5028
SWIDTH 960 0
DWIDTH 18 0
BBX 16 14 0 0
BITMAP
7380
3300
1E00
EDC0
7F80
0C00
0DE0
0FF0
0630
0630
0630
063E
0633
063E
ENDCHAR
STARTCHAR X
ENCODING 5029
SWIDTH 960 0
DWIDTH 15 0
BBX 13 14 0 0
BITMAP
7380
3300
1E00
EDC0
7F80
0C00
0FF0
03F8
0318
0318
0398
0198
0198
0198
ENDCHAR
STARTCHAR Xo
ENCODING 5030
SWIDTH 960 0
DWIDTH 14 0
BBX 12 14 0 0
BITMAP
7380
3300
1E00
EDC0
7F80
0C60
0DF0
0FB0
0630
0630
0630
0630
0600
0600
ENDCHAR
STARTCHAR mWE
ENCODING 5032
SWIDTH 960 0
DWIDTH 16 0
BBX 14 14 0 -3
BITMAP
3FF0
7FF0
C510
8510
8A10
FBF0
71F0
0020
0020
0078
004C
01F8
0300
0200
ENDCHAR
STARTCHAR bWE
ENCODING 5033
SWIDTH 960 0
DWIDTH 12 0
BBX 10 13 0 -2
BITMAP
3800
7C00
C600
C600
C600
C600
C600
C600
C600
C7C0
C640
1FC0
3000
ENDCHAR
STARTCHAR GWE
ENCODING 5034
SWIDTH 960 0
DWIDTH 12 0
BBX 10 16 0 -2
BITMAP
C300
7E00
0000
7C00
C600
C600
0600
0600
0600
0C00
0C00
0C00
0F80
0CC0
3F80
6000
ENDCHAR
STARTCHAR fWE
ENCODING 5035
SWIDTH 960 0
DWIDTH 12 0
BBX 10 15 0 -4
BITMAP
0600
0600
0C00
1800
3000
7C00
6440
67C0
7F40
0C00
0C00
0F00
1980
7F00
C000
ENDCHAR
STARTCHAR pWE
ENCODING 5036
SWIDTH 960 0
DWIDTH 12 0
BBX 10 13 0 -2
BITMAP
6180
7F80
FFC0
CCC0
0C00
0C00
0C00
0C00
0C00
0F80
0CC0
3F80
6000
ENDCHAR
STARTCHAR `ge/g2e
ENCODING 5040
SWIDTH 960 0
DWIDTH 9 0
BBX 7 14 0 0
BITMAP
66
3C
18
7C
C6
C6
06
06
06
0C
0C
0C
0C
0C
ENDCHAR
STARTCHAR `gu/g2u
ENCODING 5041
SWIDTH 960 0
DWIDTH 13 0
BBX 11 14 0 0
BITMAP
6600
3C00
1800
7C00
C600
C600
0600
0600
0600
0FE0
0C60
0C00
0C00
0C00
ENDCHAR
STARTCHAR `gi/g2i
ENCODING 5042
SWIDTH 960 0
DWIDTH 12 0
BBX 10 14 0 0
BITMAP
6600
3C00
1800
7C00
C600
C600
0600
0600
0E00
0C00
0C00
0C00
0CC0
0FC0
ENDCHAR
STARTCHAR `ga/g2a
ENCODING 5043
SWIDTH 960 0
DWIDTH 9 0
BBX 7 14 0 0
BITMAP
66
3C
18
7C
C6
C6
06
06
06
0C
1C
78
E0
C0
ENDCHAR
STARTCHAR `gE/g2E
ENCODING 5044
SWIDTH 960 0
DWIDTH 12 0
BBX 10 14 0 0
BITMAP
6600
3C00
1800
7C00
C600
C600
0600
0600
0600
0C00
0C00
0F80
0CC0
0F80
ENDCHAR
STARTCHAR `g/g2
ENCODING 5045
SWIDTH 960 0
DWIDTH 11 0
BBX 9 14 0 0
BITMAP
1980
0F00
0600
7F00
CD80
7980
0180
0180
0300
0300
0300
0300
0300
0300
ENDCHAR
STARTCHAR `go/g2o
ENCODING 5046
SWIDTH 960 0
DWIDTH 9 0
BBX 7 13 0 0
BITMAP
6C
38
10
10
7C
C6
C6
06
04
0C
0C
0C
0C
ENDCHAR
STARTCHAR mWu/mW
ENCODING 5048
SWIDTH 960 0
DWIDTH 18 0
BBX 16 12 0 0
BITMAP
7FC0
7FE4
CA24
8A3F
8A21
8BE0
F9C0
7800
0800
1800
3000
6000
ENDCHAR
STARTCHAR bWu/bW
ENCODING 5049
SWIDTH 960 0
DWIDTH 14 0
BBX 12 11 0 0
BITMAP
3800
7C00
C6C0
C6C0
C7F0
C630
C600
C600
C600
C600
C600
ENDCHAR
STARTCHAR GWu/GW
ENCODING 5050
SWIDTH 960 0
DWIDTH 14 0
BBX 12 14 0 0
BITMAP
C300
7E00
0000
7C00
C6C0
C6C0
07F0
0630
0600
0E00
0C00
0C00
0C00
0C00
ENDCHAR
STARTCHAR fWu/fW
ENCODING 5051
SWIDTH 960 0
DWIDTH 14 0
BBX 12 11 0 0
BITMAP
0600
02C0
06C0
0FF0
1830
3000
7800
CC00
C440
7FC0
1F40
ENDCHAR
STARTCHAR pWu/pW
ENCODING 5052
SWIDTH 960 0
DWIDTH 13 0
BBX 11 12 0 0
BITMAP
6180
7F80
FFC0
CCC0
0C00
0D80
0D80
0FE0
0C60
0C00
0C00
0C00
ENDCHAR
STARTCHAR Ornament
ENCODING 65008
SWIDTH 960 0
DWIDTH 14 0
BBX 12 12 0 0
BITMAP
C630
6660
30C0
1980
0F00
C630
CF30
1980
30C0
6060
C630
8610
ENDCHAR
STARTCHAR Eritrea/Ethiopia
ENCODING 65009
SWIDTH 960 0
DWIDTH 14 0
BBX 12 12 0 0
BITMAP
0C00
1C00
1600
3300
6180
6180
C100
C1F0
6070
30C0
1F80
0F00
ENDCHAR
STARTCHAR Inverted-Eritrea/Ethiopia
ENCODING 65010
SWIDTH 960 0
DWIDTH 14 0
BBX 12 12 0 0
BITMAP
0C00
0C00
1E00
3F00
3F80
7F80
FF00
FFF0
7FF0
3FC0
1F80
0F00
ENDCHAR
STARTCHAR Africa
ENCODING 65011
SWIDTH 960 0
DWIDTH 14 0
BBX 12 12 0 0
BITMAP
3E00
7F00
E180
C1D0
C0F0
7860
0CC0
0C80
0D80
0580
0700
0700
ENDCHAR
STARTCHAR Inverted-Africa
ENCODING 65012
SWIDTH 960 0
DWIDTH 14 0
BBX 12 12 0 0
BITMAP
3F00
7F00
FF80
FFD0
FFF0
1FE0
0FC0
0F80
0F80
0F80
0700
0600
ENDCHAR
STARTCHAR wWe
ENCODING 65013
SWIDTH 960 0
DWIDTH 13 0
BBX 11 12 0 0
BITMAP
3FC0
76E0
C660
C660
CC60
EEC0
7F80
0C00
0FC0
1D60
19C0
1800
ENDCHAR
STARTCHAR wWi
ENCODING 65014
SWIDTH 960 0
DWIDTH 14 0
BBX 12 12 0 0
BITMAP
3FC0
76E0
C660
C660
CCE0
EF80
7F60
0C60
0FE0
1C30
1830
1800
ENDCHAR
STARTCHAR wWa
ENCODING 65015
SWIDTH 960 0
DWIDTH 13 0
BBX 11 13 0 -2
BITMAP
3FC0
76E0
C660
C660
CC60
EEC0
7F80
0C00
0C00
1C00
1800
7E00
C300
ENDCHAR
STARTCHAR wWE
ENCODING 65016
SWIDTH 960 0
DWIDTH 13 0
BBX 11 13 0 -2
BITMAP
3FC0
76E0
C660
C660
CC60
EEC0
7F80
0C00
0C00
1F00
1980
7F00
C000
ENDCHAR
STARTCHAR wWu/wW
ENCODING 65017
SWIDTH 960 0
DWIDTH 18 0
BBX 16 12 0 0
BITMAP
3FC0
76E0
C660
C66C
CC6C
EEFF
7F83
0C00
0C00
1C00
1800
1800
ENDCHAR
STARTCHAR Ethiopic-Gemination
ENCODING 65018
SWIDTH 960 0
DWIDTH 0 0
BBX 8 2 4 15
BITMAP
C3
C3
ENDCHAR
STARTCHAR Ethiopic-Sarcasm-Mark
ENCODING 65019
SWIDTH 960 0
DWIDTH 8 0
BBX 6 12 0 -1
BITMAP
60
60
00
60
60
60
60
60
60
60
60
60
ENDCHAR
STARTCHAR Ethiopic-Point
ENCODING 65020
SWIDTH 960 0
DWIDTH 6 0
BBX 4 3 0 -1
BITMAP
60
F0
60
ENDCHAR
STARTCHAR Ethiopic-Left-Quote
ENCODING 65021
SWIDTH 960 0
DWIDTH 9 0
BBX 7 5 0 3
BITMAP
36
6C
D8
6C
36
ENDCHAR
STARTCHAR Ethiopic-Right-Quote
ENCODING 65022
SWIDTH 960 0
DWIDTH 9 0
BBX 7 5 0 3
BITMAP
D8
6C
36
6C
D8
ENDCHAR
STARTCHAR Ethiopic-Sylized-Question-Mark
ENCODING 65023
SWIDTH 960 0
DWIDTH 8 0
BBX 6 12 0 -1
BITMAP
F0
18
0C
0C
0C
3C
30
20
20
00
60
60
ENDCHAR
ENDFONT
